<svg xmlns="http://www.w3.org/2000/svg" xmlns:xlink="http://www.w3.org/1999/xlink" contentStyleType="text/css" data-diagram-type="CLASS" height="873px" preserveAspectRatio="none" style="width:1661px;height:873px;background:#FFFFFF;" version="1.1" viewBox="0 0 1661 873" width="1661px" zoomAndPan="magnify"><defs/><g><!--class Producer--><g id="elem_Producer"><rect fill="#F1F1F1" height="48" id="Producer" rx="2.5" ry="2.5" style="stroke:#181818;stroke-width:0.5;" width="94.5898" x="711.5" y="7"/><ellipse cx="726.5" cy="23" fill="#ADD1B2" rx="11" ry="11" style="stroke:#181818;stroke-width:1;"/><path d="M729.4688,28.6406 Q728.8906,28.9375 728.25,29.0781 Q727.6094,29.2344 726.9063,29.2344 Q724.4063,29.2344 723.0781,27.5938 Q721.7656,25.9375 721.7656,22.8125 Q721.7656,19.6875 723.0781,18.0313 Q724.4063,16.375 726.9063,16.375 Q727.6094,16.375 728.25,16.5313 Q728.9063,16.6875 729.4688,16.9844 L729.4688,19.7031 Q728.8438,19.125 728.25,18.8594 Q727.6563,18.5781 727.0313,18.5781 Q725.6875,18.5781 725,19.6563 Q724.3125,20.7188 724.3125,22.8125 Q724.3125,24.9063 725,25.9844 Q725.6875,27.0469 727.0313,27.0469 Q727.6563,27.0469 728.25,26.7813 Q728.8438,26.5 729.4688,25.9219 L729.4688,28.6406 Z " fill="#000000"/><text fill="#000000" font-family="sans-serif" font-size="14" lengthAdjust="spacing" textLength="62.5898" x="740.5" y="27.8467">Producer</text><line style="stroke:#181818;stroke-width:0.5;" x1="712.5" x2="805.0898" y1="39" y2="39"/><line style="stroke:#181818;stroke-width:0.5;" x1="712.5" x2="805.0898" y1="47" y2="47"/></g><!--class BasicPublisher--><g id="elem_BasicPublisher"><rect fill="#F1F1F1" height="48" id="BasicPublisher" rx="2.5" ry="2.5" style="stroke:#181818;stroke-width:0.5;" width="133.582" x="7" y="116"/><ellipse cx="22" cy="132" fill="#ADD1B2" rx="11" ry="11" style="stroke:#181818;stroke-width:1;"/><path d="M24.9688,137.6406 Q24.3906,137.9375 23.75,138.0781 Q23.1094,138.2344 22.4063,138.2344 Q19.9063,138.2344 18.5781,136.5938 Q17.2656,134.9375 17.2656,131.8125 Q17.2656,128.6875 18.5781,127.0313 Q19.9063,125.375 22.4063,125.375 Q23.1094,125.375 23.75,125.5313 Q24.4063,125.6875 24.9688,125.9844 L24.9688,128.7031 Q24.3438,128.125 23.75,127.8594 Q23.1563,127.5781 22.5313,127.5781 Q21.1875,127.5781 20.5,128.6563 Q19.8125,129.7188 19.8125,131.8125 Q19.8125,133.9063 20.5,134.9844 Q21.1875,136.0469 22.5313,136.0469 Q23.1563,136.0469 23.75,135.7813 Q24.3438,135.5 24.9688,134.9219 L24.9688,137.6406 Z " fill="#000000"/><text fill="#000000" font-family="sans-serif" font-size="14" lengthAdjust="spacing" textLength="101.582" x="36" y="136.8467">BasicPublisher</text><line style="stroke:#181818;stroke-width:0.5;" x1="8" x2="139.582" y1="148" y2="148"/><line style="stroke:#181818;stroke-width:0.5;" x1="8" x2="139.582" y1="156" y2="156"/></g><!--class Publisher--><g id="elem_Publisher"><rect fill="#F1F1F1" height="48" id="Publisher" rx="2.5" ry="2.5" style="stroke:#181818;stroke-width:0.5;" width="96.5176" x="609.53" y="116"/><ellipse cx="624.53" cy="132" fill="#ADD1B2" rx="11" ry="11" style="stroke:#181818;stroke-width:1;"/><path d="M627.4988,137.6406 Q626.9206,137.9375 626.28,138.0781 Q625.6394,138.2344 624.9363,138.2344 Q622.4363,138.2344 621.1081,136.5938 Q619.7956,134.9375 619.7956,131.8125 Q619.7956,128.6875 621.1081,127.0313 Q622.4363,125.375 624.9363,125.375 Q625.6394,125.375 626.28,125.5313 Q626.9363,125.6875 627.4988,125.9844 L627.4988,128.7031 Q626.8738,128.125 626.28,127.8594 Q625.6863,127.5781 625.0613,127.5781 Q623.7175,127.5781 623.03,128.6563 Q622.3425,129.7188 622.3425,131.8125 Q622.3425,133.9063 623.03,134.9844 Q623.7175,136.0469 625.0613,136.0469 Q625.6863,136.0469 626.28,135.7813 Q626.8738,135.5 627.4988,134.9219 L627.4988,137.6406 Z " fill="#000000"/><text fill="#000000" font-family="sans-serif" font-size="14" lengthAdjust="spacing" textLength="64.5176" x="638.53" y="136.8467">Publisher</text><line style="stroke:#181818;stroke-width:0.5;" x1="610.53" x2="705.0476" y1="148" y2="148"/><line style="stroke:#181818;stroke-width:0.5;" x1="610.53" x2="705.0476" y1="156" y2="156"/></g><!--class PublisherConfirms--><g id="elem_PublisherConfirms"><rect fill="#F1F1F1" height="48" id="PublisherConfirms" rx="2.5" ry="2.5" style="stroke:#181818;stroke-width:0.5;" width="159.2373" x="741.17" y="116"/><ellipse cx="756.17" cy="132" fill="#ADD1B2" rx="11" ry="11" style="stroke:#181818;stroke-width:1;"/><path d="M759.1388,137.6406 Q758.5606,137.9375 757.92,138.0781 Q757.2794,138.2344 756.5763,138.2344 Q754.0763,138.2344 752.7481,136.5938 Q751.4356,134.9375 751.4356,131.8125 Q751.4356,128.6875 752.7481,127.0313 Q754.0763,125.375 756.5763,125.375 Q757.2794,125.375 757.92,125.5313 Q758.5763,125.6875 759.1388,125.9844 L759.1388,128.7031 Q758.5138,128.125 757.92,127.8594 Q757.3263,127.5781 756.7013,127.5781 Q755.3575,127.5781 754.67,128.6563 Q753.9825,129.7188 753.9825,131.8125 Q753.9825,133.9063 754.67,134.9844 Q755.3575,136.0469 756.7013,136.0469 Q757.3263,136.0469 757.92,135.7813 Q758.5138,135.5 759.1388,134.9219 L759.1388,137.6406 Z " fill="#000000"/><text fill="#000000" font-family="sans-serif" font-size="14" lengthAdjust="spacing" textLength="127.2373" x="770.17" y="136.8467">PublisherConfirms</text><line style="stroke:#181818;stroke-width:0.5;" x1="742.17" x2="899.4073" y1="148" y2="148"/><line style="stroke:#181818;stroke-width:0.5;" x1="742.17" x2="899.4073" y1="156" y2="156"/></g><!--class RPCClient--><g id="elem_RPCClient"><rect fill="#F1F1F1" height="48" id="RPCClient" rx="2.5" ry="2.5" style="stroke:#181818;stroke-width:0.5;" width="100.4756" x="474.55" y="116"/><ellipse cx="489.55" cy="132" fill="#ADD1B2" rx="11" ry="11" style="stroke:#181818;stroke-width:1;"/><path d="M492.5188,137.6406 Q491.9406,137.9375 491.3,138.0781 Q490.6594,138.2344 489.9563,138.2344 Q487.4563,138.2344 486.1281,136.5938 Q484.8156,134.9375 484.8156,131.8125 Q484.8156,128.6875 486.1281,127.0313 Q487.4563,125.375 489.9563,125.375 Q490.6594,125.375 491.3,125.5313 Q491.9563,125.6875 492.5188,125.9844 L492.5188,128.7031 Q491.8938,128.125 491.3,127.8594 Q490.7063,127.5781 490.0813,127.5781 Q488.7375,127.5781 488.05,128.6563 Q487.3625,129.7188 487.3625,131.8125 Q487.3625,133.9063 488.05,134.9844 Q488.7375,136.0469 490.0813,136.0469 Q490.7063,136.0469 491.3,135.7813 Q491.8938,135.5 492.5188,134.9219 L492.5188,137.6406 Z " fill="#000000"/><text fill="#000000" font-family="sans-serif" font-size="14" lengthAdjust="spacing" textLength="68.4756" x="503.55" y="136.8467">RPCClient</text><line style="stroke:#181818;stroke-width:0.5;" x1="475.55" x2="574.0256" y1="148" y2="148"/><line style="stroke:#181818;stroke-width:0.5;" x1="475.55" x2="574.0256" y1="156" y2="156"/></g><!--class ConnectionFactory--><g id="elem_ConnectionFactory"><rect fill="#F1F1F1" height="48" id="ConnectionFactory" rx="2.5" ry="2.5" style="stroke:#181818;stroke-width:0.5;" width="163.6396" x="1295.97" y="584"/><ellipse cx="1310.97" cy="600" fill="#ADD1B2" rx="11" ry="11" style="stroke:#181818;stroke-width:1;"/><path d="M1313.9388,605.6406 Q1313.3606,605.9375 1312.72,606.0781 Q1312.0794,606.2344 1311.3763,606.2344 Q1308.8763,606.2344 1307.5481,604.5938 Q1306.2356,602.9375 1306.2356,599.8125 Q1306.2356,596.6875 1307.5481,595.0313 Q1308.8763,593.375 1311.3763,593.375 Q1312.0794,593.375 1312.72,593.5313 Q1313.3763,593.6875 1313.9388,593.9844 L1313.9388,596.7031 Q1313.3138,596.125 1312.72,595.8594 Q1312.1263,595.5781 1311.5013,595.5781 Q1310.1575,595.5781 1309.47,596.6563 Q1308.7825,597.7188 1308.7825,599.8125 Q1308.7825,601.9063 1309.47,602.9844 Q1310.1575,604.0469 1311.5013,604.0469 Q1312.1263,604.0469 1312.72,603.7813 Q1313.3138,603.5 1313.9388,602.9219 L1313.9388,605.6406 Z " fill="#000000"/><text fill="#000000" font-family="sans-serif" font-size="14" lengthAdjust="spacing" textLength="131.6396" x="1324.97" y="604.8467">ConnectionFactory</text><line style="stroke:#181818;stroke-width:0.5;" x1="1296.97" x2="1458.6096" y1="616" y2="616"/><line style="stroke:#181818;stroke-width:0.5;" x1="1296.97" x2="1458.6096" y1="624" y2="624"/></g><!--class Message--><g id="elem_Message"><rect fill="#F1F1F1" height="48" id="Message" rx="2.5" ry="2.5" style="stroke:#181818;stroke-width:0.5;" width="93.3594" x="347.11" y="584"/><ellipse cx="362.11" cy="600" fill="#ADD1B2" rx="11" ry="11" style="stroke:#181818;stroke-width:1;"/><path d="M365.0788,605.6406 Q364.5006,605.9375 363.86,606.0781 Q363.2194,606.2344 362.5163,606.2344 Q360.0163,606.2344 358.6881,604.5938 Q357.3756,602.9375 357.3756,599.8125 Q357.3756,596.6875 358.6881,595.0313 Q360.0163,593.375 362.5163,593.375 Q363.2194,593.375 363.86,593.5313 Q364.5163,593.6875 365.0788,593.9844 L365.0788,596.7031 Q364.4538,596.125 363.86,595.8594 Q363.2663,595.5781 362.6413,595.5781 Q361.2975,595.5781 360.61,596.6563 Q359.9225,597.7188 359.9225,599.8125 Q359.9225,601.9063 360.61,602.9844 Q361.2975,604.0469 362.6413,604.0469 Q363.2663,604.0469 363.86,603.7813 Q364.4538,603.5 365.0788,602.9219 L365.0788,605.6406 Z " fill="#000000"/><text fill="#000000" font-family="sans-serif" font-size="14" lengthAdjust="spacing" textLength="61.3594" x="376.11" y="604.8467">Message</text><line style="stroke:#181818;stroke-width:0.5;" x1="348.11" x2="439.4694" y1="616" y2="616"/><line style="stroke:#181818;stroke-width:0.5;" x1="348.11" x2="439.4694" y1="624" y2="624"/></g><!--class Connection--><g id="elem_Connection"><rect fill="#F1F1F1" height="48" id="Connection" rx="2.5" ry="2.5" style="stroke:#181818;stroke-width:0.5;" width="111.2148" x="1213.18" y="709"/><ellipse cx="1228.18" cy="725" fill="#ADD1B2" rx="11" ry="11" style="stroke:#181818;stroke-width:1;"/><path d="M1231.1488,730.6406 Q1230.5706,730.9375 1229.93,731.0781 Q1229.2894,731.2344 1228.5863,731.2344 Q1226.0863,731.2344 1224.7581,729.5938 Q1223.4456,727.9375 1223.4456,724.8125 Q1223.4456,721.6875 1224.7581,720.0313 Q1226.0863,718.375 1228.5863,718.375 Q1229.2894,718.375 1229.93,718.5313 Q1230.5863,718.6875 1231.1488,718.9844 L1231.1488,721.7031 Q1230.5238,721.125 1229.93,720.8594 Q1229.3363,720.5781 1228.7113,720.5781 Q1227.3675,720.5781 1226.68,721.6563 Q1225.9925,722.7188 1225.9925,724.8125 Q1225.9925,726.9063 1226.68,727.9844 Q1227.3675,729.0469 1228.7113,729.0469 Q1229.3363,729.0469 1229.93,728.7813 Q1230.5238,728.5 1231.1488,727.9219 L1231.1488,730.6406 Z " fill="#000000"/><text fill="#000000" font-family="sans-serif" font-size="14" lengthAdjust="spacing" textLength="79.2148" x="1242.18" y="729.8467">Connection</text><line style="stroke:#181818;stroke-width:0.5;" x1="1214.18" x2="1323.3948" y1="741" y2="741"/><line style="stroke:#181818;stroke-width:0.5;" x1="1214.18" x2="1323.3948" y1="749" y2="749"/></g><!--class Channel--><g id="elem_Channel"><rect fill="#F1F1F1" height="48" id="Channel" rx="2.5" ry="2.5" style="stroke:#181818;stroke-width:0.5;" width="89.4766" x="600.05" y="818"/><ellipse cx="615.05" cy="834" fill="#ADD1B2" rx="11" ry="11" style="stroke:#181818;stroke-width:1;"/><path d="M618.0188,839.6406 Q617.4406,839.9375 616.8,840.0781 Q616.1594,840.2344 615.4563,840.2344 Q612.9563,840.2344 611.6281,838.5938 Q610.3156,836.9375 610.3156,833.8125 Q610.3156,830.6875 611.6281,829.0313 Q612.9563,827.375 615.4563,827.375 Q616.1594,827.375 616.8,827.5313 Q617.4563,827.6875 618.0188,827.9844 L618.0188,830.7031 Q617.3938,830.125 616.8,829.8594 Q616.2063,829.5781 615.5813,829.5781 Q614.2375,829.5781 613.55,830.6563 Q612.8625,831.7188 612.8625,833.8125 Q612.8625,835.9063 613.55,836.9844 Q614.2375,838.0469 615.5813,838.0469 Q616.2063,838.0469 616.8,837.7813 Q617.3938,837.5 618.0188,836.9219 L618.0188,839.6406 Z " fill="#000000"/><text fill="#000000" font-family="sans-serif" font-size="14" lengthAdjust="spacing" textLength="57.4766" x="629.05" y="838.8467">Channel</text><line style="stroke:#181818;stroke-width:0.5;" x1="601.05" x2="688.5266" y1="850" y2="850"/><line style="stroke:#181818;stroke-width:0.5;" x1="601.05" x2="688.5266" y1="858" y2="858"/></g><!--class Queue--><g id="elem_Queue"><rect fill="#F1F1F1" height="48" id="Queue" rx="2.5" ry="2.5" style="stroke:#181818;stroke-width:0.5;" width="77.9922" x="767.79" y="350"/><ellipse cx="782.79" cy="366" fill="#ADD1B2" rx="11" ry="11" style="stroke:#181818;stroke-width:1;"/><path d="M785.7588,371.6406 Q785.1806,371.9375 784.54,372.0781 Q783.8994,372.2344 783.1963,372.2344 Q780.6963,372.2344 779.3681,370.5938 Q778.0556,368.9375 778.0556,365.8125 Q778.0556,362.6875 779.3681,361.0313 Q780.6963,359.375 783.1963,359.375 Q783.8994,359.375 784.54,359.5313 Q785.1963,359.6875 785.7588,359.9844 L785.7588,362.7031 Q785.1338,362.125 784.54,361.8594 Q783.9463,361.5781 783.3213,361.5781 Q781.9775,361.5781 781.29,362.6563 Q780.6025,363.7188 780.6025,365.8125 Q780.6025,367.9063 781.29,368.9844 Q781.9775,370.0469 783.3213,370.0469 Q783.9463,370.0469 784.54,369.7813 Q785.1338,369.5 785.7588,368.9219 L785.7588,371.6406 Z " fill="#000000"/><text fill="#000000" font-family="sans-serif" font-size="14" lengthAdjust="spacing" textLength="45.9922" x="796.79" y="370.8467">Queue</text><line style="stroke:#181818;stroke-width:0.5;" x1="768.79" x2="844.7822" y1="382" y2="382"/><line style="stroke:#181818;stroke-width:0.5;" x1="768.79" x2="844.7822" y1="390" y2="390"/></g><!--class Exchange--><g id="elem_Exchange"><rect fill="#F1F1F1" height="48" id="Exchange" rx="2.5" ry="2.5" style="stroke:#181818;stroke-width:0.5;" width="100.6533" x="585.46" y="225"/><ellipse cx="600.46" cy="241" fill="#ADD1B2" rx="11" ry="11" style="stroke:#181818;stroke-width:1;"/><path d="M603.4288,246.6406 Q602.8506,246.9375 602.21,247.0781 Q601.5694,247.2344 600.8663,247.2344 Q598.3663,247.2344 597.0381,245.5938 Q595.7256,243.9375 595.7256,240.8125 Q595.7256,237.6875 597.0381,236.0313 Q598.3663,234.375 600.8663,234.375 Q601.5694,234.375 602.21,234.5313 Q602.8663,234.6875 603.4288,234.9844 L603.4288,237.7031 Q602.8038,237.125 602.21,236.8594 Q601.6163,236.5781 600.9913,236.5781 Q599.6475,236.5781 598.96,237.6563 Q598.2725,238.7188 598.2725,240.8125 Q598.2725,242.9063 598.96,243.9844 Q599.6475,245.0469 600.9913,245.0469 Q601.6163,245.0469 602.21,244.7813 Q602.8038,244.5 603.4288,243.9219 L603.4288,246.6406 Z " fill="#000000"/><text fill="#000000" font-family="sans-serif" font-size="14" lengthAdjust="spacing" textLength="68.6533" x="614.46" y="245.8467">Exchange</text><line style="stroke:#181818;stroke-width:0.5;" x1="586.46" x2="685.1133" y1="257" y2="257"/><line style="stroke:#181818;stroke-width:0.5;" x1="586.46" x2="685.1133" y1="265" y2="265"/></g><!--class BasicProperties--><g id="elem_BasicProperties"><rect fill="#F1F1F1" height="48" id="BasicProperties" rx="2.5" ry="2.5" style="stroke:#181818;stroke-width:0.5;" width="140.3701" x="451.61" y="709"/><ellipse cx="466.61" cy="725" fill="#ADD1B2" rx="11" ry="11" style="stroke:#181818;stroke-width:1;"/><path d="M469.5788,730.6406 Q469.0006,730.9375 468.36,731.0781 Q467.7194,731.2344 467.0163,731.2344 Q464.5163,731.2344 463.1881,729.5938 Q461.8756,727.9375 461.8756,724.8125 Q461.8756,721.6875 463.1881,720.0313 Q464.5163,718.375 467.0163,718.375 Q467.7194,718.375 468.36,718.5313 Q469.0163,718.6875 469.5788,718.9844 L469.5788,721.7031 Q468.9538,721.125 468.36,720.8594 Q467.7663,720.5781 467.1413,720.5781 Q465.7975,720.5781 465.11,721.6563 Q464.4225,722.7188 464.4225,724.8125 Q464.4225,726.9063 465.11,727.9844 Q465.7975,729.0469 467.1413,729.0469 Q467.7663,729.0469 468.36,728.7813 Q468.9538,728.5 469.5788,727.9219 L469.5788,730.6406 Z " fill="#000000"/><text fill="#000000" font-family="sans-serif" font-size="14" lengthAdjust="spacing" textLength="108.3701" x="480.61" y="729.8467">BasicProperties</text><line style="stroke:#181818;stroke-width:0.5;" x1="452.61" x2="590.9801" y1="741" y2="741"/><line style="stroke:#181818;stroke-width:0.5;" x1="452.61" x2="590.9801" y1="749" y2="749"/></g><!--class Consumer--><g id="elem_Consumer"><rect fill="#F1F1F1" height="48" id="Consumer" rx="2.5" ry="2.5" style="stroke:#181818;stroke-width:0.5;" width="103.3877" x="815.1" y="475"/><ellipse cx="830.1" cy="491" fill="#ADD1B2" rx="11" ry="11" style="stroke:#181818;stroke-width:1;"/><path d="M833.0688,496.6406 Q832.4906,496.9375 831.85,497.0781 Q831.2094,497.2344 830.5063,497.2344 Q828.0063,497.2344 826.6781,495.5938 Q825.3656,493.9375 825.3656,490.8125 Q825.3656,487.6875 826.6781,486.0313 Q828.0063,484.375 830.5063,484.375 Q831.2094,484.375 831.85,484.5313 Q832.5063,484.6875 833.0688,484.9844 L833.0688,487.7031 Q832.4438,487.125 831.85,486.8594 Q831.2563,486.5781 830.6313,486.5781 Q829.2875,486.5781 828.6,487.6563 Q827.9125,488.7188 827.9125,490.8125 Q827.9125,492.9063 828.6,493.9844 Q829.2875,495.0469 830.6313,495.0469 Q831.2563,495.0469 831.85,494.7813 Q832.4438,494.5 833.0688,493.9219 L833.0688,496.6406 Z " fill="#000000"/><text fill="#000000" font-family="sans-serif" font-size="14" lengthAdjust="spacing" textLength="71.3877" x="844.1" y="495.8467">Consumer</text><line style="stroke:#181818;stroke-width:0.5;" x1="816.1" x2="917.4877" y1="507" y2="507"/><line style="stroke:#181818;stroke-width:0.5;" x1="816.1" x2="917.4877" y1="515" y2="515"/></g><!--class SelectiveConsumer--><g id="elem_SelectiveConsumer"><rect fill="#F1F1F1" height="48" id="SelectiveConsumer" rx="2.5" ry="2.5" style="stroke:#181818;stroke-width:0.5;" width="167.3652" x="688.11" y="584"/><ellipse cx="703.11" cy="600" fill="#ADD1B2" rx="11" ry="11" style="stroke:#181818;stroke-width:1;"/><path d="M706.0788,605.6406 Q705.5006,605.9375 704.86,606.0781 Q704.2194,606.2344 703.5163,606.2344 Q701.0163,606.2344 699.6881,604.5938 Q698.3756,602.9375 698.3756,599.8125 Q698.3756,596.6875 699.6881,595.0313 Q701.0163,593.375 703.5163,593.375 Q704.2194,593.375 704.86,593.5313 Q705.5163,593.6875 706.0788,593.9844 L706.0788,596.7031 Q705.4538,596.125 704.86,595.8594 Q704.2663,595.5781 703.6413,595.5781 Q702.2975,595.5781 701.61,596.6563 Q700.9225,597.7188 700.9225,599.8125 Q700.9225,601.9063 701.61,602.9844 Q702.2975,604.0469 703.6413,604.0469 Q704.2663,604.0469 704.86,603.7813 Q705.4538,603.5 706.0788,602.9219 L706.0788,605.6406 Z " fill="#000000"/><text fill="#000000" font-family="sans-serif" font-size="14" lengthAdjust="spacing" textLength="135.3652" x="717.11" y="604.8467">SelectiveConsumer</text><line style="stroke:#181818;stroke-width:0.5;" x1="689.11" x2="854.4752" y1="616" y2="616"/><line style="stroke:#181818;stroke-width:0.5;" x1="689.11" x2="854.4752" y1="624" y2="624"/></g><!--class CompetingConsumer--><g id="elem_CompetingConsumer"><rect fill="#F1F1F1" height="48" id="CompetingConsumer" rx="2.5" ry="2.5" style="stroke:#181818;stroke-width:0.5;" width="180.0049" x="961.79" y="584"/><ellipse cx="976.79" cy="600" fill="#ADD1B2" rx="11" ry="11" style="stroke:#181818;stroke-width:1;"/><path d="M979.7588,605.6406 Q979.1806,605.9375 978.54,606.0781 Q977.8994,606.2344 977.1963,606.2344 Q974.6963,606.2344 973.3681,604.5938 Q972.0556,602.9375 972.0556,599.8125 Q972.0556,596.6875 973.3681,595.0313 Q974.6963,593.375 977.1963,593.375 Q977.8994,593.375 978.54,593.5313 Q979.1963,593.6875 979.7588,593.9844 L979.7588,596.7031 Q979.1338,596.125 978.54,595.8594 Q977.9463,595.5781 977.3213,595.5781 Q975.9775,595.5781 975.29,596.6563 Q974.6025,597.7188 974.6025,599.8125 Q974.6025,601.9063 975.29,602.9844 Q975.9775,604.0469 977.3213,604.0469 Q977.9463,604.0469 978.54,603.7813 Q979.1338,603.5 979.7588,602.9219 L979.7588,605.6406 Z " fill="#000000"/><text fill="#000000" font-family="sans-serif" font-size="14" lengthAdjust="spacing" textLength="148.0049" x="990.79" y="604.8467">CompetingConsumer</text><line style="stroke:#181818;stroke-width:0.5;" x1="962.79" x2="1140.7949" y1="616" y2="616"/><line style="stroke:#181818;stroke-width:0.5;" x1="962.79" x2="1140.7949" y1="624" y2="624"/></g><!--class RPCServer--><g id="elem_RPCServer"><rect fill="#F1F1F1" height="48" id="RPCServer" rx="2.5" ry="2.5" style="stroke:#181818;stroke-width:0.5;" width="105.8555" x="475.86" y="584"/><ellipse cx="490.86" cy="600" fill="#ADD1B2" rx="11" ry="11" style="stroke:#181818;stroke-width:1;"/><path d="M493.8288,605.6406 Q493.2506,605.9375 492.61,606.0781 Q491.9694,606.2344 491.2663,606.2344 Q488.7663,606.2344 487.4381,604.5938 Q486.1256,602.9375 486.1256,599.8125 Q486.1256,596.6875 487.4381,595.0313 Q488.7663,593.375 491.2663,593.375 Q491.9694,593.375 492.61,593.5313 Q493.2663,593.6875 493.8288,593.9844 L493.8288,596.7031 Q493.2038,596.125 492.61,595.8594 Q492.0163,595.5781 491.3913,595.5781 Q490.0475,595.5781 489.36,596.6563 Q488.6725,597.7188 488.6725,599.8125 Q488.6725,601.9063 489.36,602.9844 Q490.0475,604.0469 491.3913,604.0469 Q492.0163,604.0469 492.61,603.7813 Q493.2038,603.5 493.8288,602.9219 L493.8288,605.6406 Z " fill="#000000"/><text fill="#000000" font-family="sans-serif" font-size="14" lengthAdjust="spacing" textLength="73.8555" x="504.86" y="604.8467">RPCServer</text><line style="stroke:#181818;stroke-width:0.5;" x1="476.86" x2="580.7155" y1="616" y2="616"/><line style="stroke:#181818;stroke-width:0.5;" x1="476.86" x2="580.7155" y1="624" y2="624"/></g><!--class Binding--><g id="elem_Binding"><rect fill="#F1F1F1" height="48" id="Binding" rx="2.5" ry="2.5" style="stroke:#181818;stroke-width:0.5;" width="84.9033" x="1176.34" y="584"/><ellipse cx="1191.34" cy="600" fill="#ADD1B2" rx="11" ry="11" style="stroke:#181818;stroke-width:1;"/><path d="M1194.3088,605.6406 Q1193.7306,605.9375 1193.09,606.0781 Q1192.4494,606.2344 1191.7463,606.2344 Q1189.2463,606.2344 1187.9181,604.5938 Q1186.6056,602.9375 1186.6056,599.8125 Q1186.6056,596.6875 1187.9181,595.0313 Q1189.2463,593.375 1191.7463,593.375 Q1192.4494,593.375 1193.09,593.5313 Q1193.7463,593.6875 1194.3088,593.9844 L1194.3088,596.7031 Q1193.6838,596.125 1193.09,595.8594 Q1192.4963,595.5781 1191.8713,595.5781 Q1190.5275,595.5781 1189.84,596.6563 Q1189.1525,597.7188 1189.1525,599.8125 Q1189.1525,601.9063 1189.84,602.9844 Q1190.5275,604.0469 1191.8713,604.0469 Q1192.4963,604.0469 1193.09,603.7813 Q1193.6838,603.5 1194.3088,602.9219 L1194.3088,605.6406 Z " fill="#000000"/><text fill="#000000" font-family="sans-serif" font-size="14" lengthAdjust="spacing" textLength="52.9033" x="1205.34" y="604.8467">Binding</text><line style="stroke:#181818;stroke-width:0.5;" x1="1177.34" x2="1260.2433" y1="616" y2="616"/><line style="stroke:#181818;stroke-width:0.5;" x1="1177.34" x2="1260.2433" y1="624" y2="624"/></g><!--reverse link Producer to BasicPublisher--><g id="link_Producer_BasicPublisher"><path codeLine="4" d="M693.1129,34.3204 C571.2429,38.9304 268.86,53.13 167.79,85 C146.07,91.85 123.88,104.29 106.52,115.5 " fill="#FFFFFF" fill-opacity="0.00000" id="Producer-backto-BasicPublisher" style="stroke:#181818;stroke-width:1;"/><polygon fill="#FFFFFF" fill-opacity="0.00000" points="711.1,33.64,692.8861,28.3247,693.3397,40.3161,711.1,33.64" style="stroke:#181818;stroke-width:1;"/></g><!--reverse link Producer to Publisher--><g id="link_Producer_Publisher"><path codeLine="5" d="M724.2742,68.5695 C707.4342,86.4095 696.73,97.75 679.9,115.57 " fill="#FFFFFF" fill-opacity="0.00000" id="Producer-backto-Publisher" style="stroke:#181818;stroke-width:1;"/><polygon fill="#FFFFFF" fill-opacity="0.00000" points="736.63,55.48,719.9111,64.4509,728.6374,72.6881,736.63,55.48" style="stroke:#181818;stroke-width:1;"/></g><!--reverse link Producer to PublisherConfirms--><g id="link_Producer_PublisherConfirms"><path codeLine="6" d="M781.4197,71.0571 C791.7497,88.8971 796.89,97.75 807.22,115.57 " fill="#FFFFFF" fill-opacity="0.00000" id="Producer-backto-PublisherConfirms" style="stroke:#181818;stroke-width:1;"/><polygon fill="#FFFFFF" fill-opacity="0.00000" points="772.4,55.48,776.2273,74.0636,786.612,68.0505,772.4,55.48" style="stroke:#181818;stroke-width:1;"/></g><!--reverse link Producer to RPCClient--><g id="link_Producer_RPCClient"><path codeLine="7" d="M694.7903,61.2655 C655.2303,79.3555 615.49,97.52 575.19,115.95 " fill="#FFFFFF" fill-opacity="0.00000" id="Producer-backto-RPCClient" style="stroke:#181818;stroke-width:1;"/><polygon fill="#FFFFFF" fill-opacity="0.00000" points="711.16,53.78,692.2951,55.809,697.2855,66.7221,711.16,53.78" style="stroke:#181818;stroke-width:1;"/></g><!--reverse link Producer to ConnectionFactory--><g id="link_Producer_ConnectionFactory"><path codeLine="8" d="M818.3671,36.2185 C961.9371,46.8785 1368.79,81.98 1368.79,139 C1368.79,139 1368.79,139 1368.79,500 C1368.79,528.9 1372.09,562.03 1374.69,583.67 " fill="#FFFFFF" fill-opacity="0.00000" id="Producer-backto-ConnectionFactory" style="stroke:#181818;stroke-width:1;"/><polygon fill="#181818" points="806.4,35.33,812.0873,39.7633,818.3671,36.2185,812.6797,31.7853,806.4,35.33" style="stroke:#181818;stroke-width:1;"/><text fill="#000000" font-family="sans-serif" font-size="13" lengthAdjust="spacing" textLength="26.2603" x="1344.7974" y="572.9945">1..N</text></g><!--link Producer to Message--><g id="link_Producer_Message"><path codeLine="9" d="M711.11,36 C574.89,48.07 193.79,86.52 193.79,139 C193.79,139 193.79,139 193.79,500 C193.79,569.01 287.52,593.68 346.65,602.38 " fill="#FFFFFF" fill-opacity="0.00000" id="Producer-Message" style="stroke:#181818;stroke-width:1;"/><text fill="#000000" font-family="sans-serif" font-size="13" lengthAdjust="spacing" textLength="16.5356" x="686.9706" y="32.7095">1..</text><text fill="#000000" font-family="sans-serif" font-size="13" lengthAdjust="spacing" textLength="26.2603" x="312.9613" y="597.7744">1..N</text></g><!--link Producer to Connection--><g id="link_Producer_Connection"><path codeLine="10" d="M806.41,33.13 C982.1,37.91 1583.79,60.06 1583.79,139 C1583.79,139 1583.79,139 1583.79,609 C1583.79,663.97 1415.26,704.33 1324.74,722.04 " fill="#FFFFFF" fill-opacity="0.00000" id="Producer-Connection" style="stroke:#181818;stroke-width:1;"/><text fill="#000000" font-family="sans-serif" font-size="13" lengthAdjust="spacing" textLength="26.2603" x="1332.2959" y="717.0951">1..N</text></g><!--link Producer to Channel--><g id="link_Producer_Channel"><path codeLine="11" d="M806.33,32.63 C991.57,35.71 1654.79,52.74 1654.79,139 C1654.79,139 1654.79,139 1654.79,734 C1654.79,832.47 885.82,840.56 689.82,841.03 " fill="#FFFFFF" fill-opacity="0.00000" id="Producer-Channel" style="stroke:#181818;stroke-width:1;"/><text fill="#000000" font-family="sans-serif" font-size="13" lengthAdjust="spacing" textLength="26.2603" x="697.6355" y="836.9677">1..N</text></g><!--link Producer to Queue--><g id="link_Producer_Queue"><path codeLine="12" d="M806.32,42.88 C843.86,54.24 893.78,76.16 917.79,116 C941.74,155.73 951.68,241.46 899.79,320 C887.29,338.92 865.59,351.84 846.29,360.19 " fill="#FFFFFF" fill-opacity="0.00000" id="Producer-Queue" style="stroke:#181818;stroke-width:1;"/><text fill="#000000" font-family="sans-serif" font-size="13" lengthAdjust="spacing" textLength="26.2603" x="853.6917" y="354.2695">1..N</text></g><!--link Publisher to Exchange--><g id="link_Publisher_Exchange"><path codeLine="13" d="M652.96,164.48 C649.29,182.32 644.27,206.75 640.61,224.57 " fill="#FFFFFF" fill-opacity="0.00000" id="Publisher-Exchange" style="stroke:#181818;stroke-width:1;"/><text fill="#000000" font-family="sans-serif" font-size="13" lengthAdjust="spacing" textLength="26.2603" x="612.6487" y="213.8701">1..N</text></g><!--link PublisherConfirms to Exchange--><g id="link_PublisherConfirms_Exchange"><path codeLine="14" d="M780.19,164.48 C749.35,182.32 707.12,206.75 676.3,224.57 " fill="#FFFFFF" fill-opacity="0.00000" id="PublisherConfirms-Exchange" style="stroke:#181818;stroke-width:1;"/><text fill="#000000" font-family="sans-serif" font-size="13" lengthAdjust="spacing" textLength="26.2603" x="657.0381" y="213.8701">1..N</text></g><!--reverse link ConnectionFactory to Connection--><g id="link_ConnectionFactory_Connection"><path codeLine="15" d="M1338.1283,640.746 C1315.4083,662.636 1295.26,686.8 1279.22,708.66 " fill="#FFFFFF" fill-opacity="0.00000" id="ConnectionFactory-backto-Connection" style="stroke:#181818;stroke-width:1;"/><polygon fill="#181818" points="1346.77,632.42,1339.6738,633.7024,1338.1283,640.746,1345.2245,639.4635,1346.77,632.42" style="stroke:#181818;stroke-width:1;"/></g><!--reverse link ConnectionFactory to Connection--><g id="link_ConnectionFactory_Connection"><path codeLine="41" d="M1360.8536,642.1333 C1344.9736,664.0233 1323.22,686.8 1300.33,708.66 " fill="#FFFFFF" fill-opacity="0.00000" id="ConnectionFactory-backto-Connection-1" style="stroke:#181818;stroke-width:1;"/><polygon fill="#181818" points="1367.9,632.42,1361.139,634.9278,1360.8536,642.1333,1367.6145,639.6254,1367.9,632.42" style="stroke:#181818;stroke-width:1;"/><text fill="#000000" font-family="sans-serif" font-size="13" lengthAdjust="spacing" textLength="26.2603" x="1278.8815" y="697.9821">0..N</text></g><!--reverse link ConnectionFactory to Channel--><g id="link_ConnectionFactory_Channel"><path codeLine="16" d="M1379.9859,644.3031 C1381.1059,677.3931 1377.29,725.49 1341.79,757 C1292.92,800.39 836.61,830.04 689.95,838.51 " fill="#FFFFFF" fill-opacity="0.00000" id="ConnectionFactory-backto-Channel" style="stroke:#181818;stroke-width:1;"/><polygon fill="#181818" points="1379.58,632.31,1375.7853,638.4419,1379.9859,644.3031,1383.7807,638.1713,1379.58,632.31" style="stroke:#181818;stroke-width:1;"/></g><!--reverse link Channel to Queue--><g id="link_Channel_Queue"><path codeLine="17" d="M701.9275,839.9869 C880.0975,836.3769 1512.79,817.75 1512.79,734 C1512.79,498 1512.79,498 1512.79,498 C1512.79,429.8 994.94,388.2 846.26,377.66 " fill="#FFFFFF" fill-opacity="0.00000" id="Channel-backto-Queue" style="stroke:#181818;stroke-width:1;"/><polygon fill="#181818" points="689.93,840.23,696.0098,844.1076,701.9275,839.9869,695.8477,836.1093,689.93,840.23" style="stroke:#181818;stroke-width:1;"/><text fill="#000000" font-family="sans-serif" font-size="13" lengthAdjust="spacing" textLength="26.2603" x="853.6574" y="374.1962">1..N</text></g><!--reverse link Channel to Exchange--><g id="link_Channel_Exchange"><path codeLine="18" d="M587.7545,836.927 C529.5645,830.867 442.34,813.46 382.79,757 C336.59,713.19 328.87,693.61 312.79,632 C269.61,466.53 483.43,325.15 585.12,272.24 " fill="#FFFFFF" fill-opacity="0.00000" id="Channel-backto-Exchange" style="stroke:#181818;stroke-width:1;"/><polygon fill="#181818" points="599.69,838.17,594.1366,833.57,587.7545,836.927,593.3079,841.527,599.69,838.17" style="stroke:#181818;stroke-width:1;"/><text fill="#000000" font-family="sans-serif" font-size="13" lengthAdjust="spacing" textLength="26.2603" x="551.3765" y="271.2333">0..N</text></g><!--reverse link Channel to Exchange--><g id="link_Channel_Exchange"><path codeLine="45" d="M587.7345,832.7008 C537.2245,823.9908 468.86,805.42 417.79,757 C371.59,713.19 363.87,693.61 347.79,632 C304.94,467.76 515.26,327.25 601.2,273.44 " fill="#FFFFFF" fill-opacity="0.00000" id="Channel-backto-Exchange-1" style="stroke:#181818;stroke-width:1;"/><polygon fill="#181818" points="599.56,834.74,594.327,829.7786,587.7345,832.7008,592.9675,837.6622,599.56,834.74" style="stroke:#181818;stroke-width:1;"/><text fill="#000000" font-family="sans-serif" font-size="13" lengthAdjust="spacing" textLength="26.2603" x="564.2257" y="292.9084">0..N</text></g><!--link Exchange to Queue--><g id="link_Exchange_Queue"><path codeLine="19" d="M636.33,273.45 C637.87,288.48 642.23,307.45 653.79,320 C683.22,351.94 732.86,364.63 767.59,369.67 " fill="#FFFFFF" fill-opacity="0.00000" id="Exchange-Queue" style="stroke:#181818;stroke-width:1;"/><text fill="#000000" font-family="sans-serif" font-size="13" lengthAdjust="spacing" textLength="107.5039" x="654.79" y="316.0669">routeMessageTo</text><text fill="#000000" font-family="sans-serif" font-size="13" lengthAdjust="spacing" textLength="26.2603" x="733.6174" y="364.9356">0..N</text></g><!--link Exchange to Queue--><g id="link_Exchange_Queue"><path codeLine="58" d="M692.1406,263.6578 C718.4106,271.8078 743.97,283.07 766.79,303 C781.13,315.52 789.1107,329.005 795.7007,344.035 " fill="#FFFFFF" fill-opacity="0.00000" id="Exchange-Queue-1" style="stroke:#181818;stroke-width:1;stroke-dasharray:7.0,7.0;"/><polygon fill="#181818" points="686.41,261.88,693.8206,268.3671,691.1855,263.3615,696.1911,260.7264,686.41,261.88" style="stroke:#181818;stroke-width:1;"/><polygon fill="#181818" points="798.11,349.53,798.1594,339.6813,796.1022,344.9508,790.8327,342.8937,798.11,349.53" style="stroke:#181818;stroke-width:1;"/><text fill="#000000" font-family="sans-serif" font-size="13" lengthAdjust="spacing" textLength="109.2876" x="781.79" y="316.0669">routes Messages</text></g><!--link Message to Channel--><g id="link_Message_Channel"><path codeLine="21" d="M382.57,632.26 C378.28,664.22 385.36,721.73 416.79,757 C463.49,809.39 547.26,829.54 599.68,836.95 " fill="#FFFFFF" fill-opacity="0.00000" id="Message-Channel" style="stroke:#181818;stroke-width:1;"/><text fill="#000000" font-family="sans-serif" font-size="13" lengthAdjust="spacing" textLength="26.2603" x="350.6982" y="652.0846">0..N</text><text fill="#000000" font-family="sans-serif" font-size="13" lengthAdjust="spacing" textLength="26.2603" x="565.8892" y="832.3394">1..N</text></g><!--link Message to Channel--><g id="link_Message_Channel"><path codeLine="49" d="M405.9,632.26 C413.28,664.22 420.36,721.73 451.79,757 C490.88,800.86 555.94,822.12 599.96,832.23 " fill="#FFFFFF" fill-opacity="0.00000" id="Message-Channel-1" style="stroke:#181818;stroke-width:1;"/><text fill="#000000" font-family="sans-serif" font-size="13" lengthAdjust="spacing" textLength="26.2603" x="412.0524" y="652.0846">1..N</text><text fill="#000000" font-family="sans-serif" font-size="13" lengthAdjust="spacing" textLength="26.2603" x="565.8462" y="843.987">0..N</text></g><!--link Message to Queue--><g id="link_Message_Queue"><path codeLine="22" d="M405.27,583.56 C435.78,545.38 514.61,469.85 595.79,428 C650.88,399.6 722.84,385.11 767.46,378.88 " fill="#FFFFFF" fill-opacity="0.00000" id="Message-Queue" style="stroke:#181818;stroke-width:1;"/><text fill="#000000" font-family="sans-serif" font-size="13" lengthAdjust="spacing" textLength="26.2603" x="378.9313" y="572.8577">1..N</text><text fill="#000000" font-family="sans-serif" font-size="13" lengthAdjust="spacing" textLength="26.2603" x="733.4675" y="375.5559">0..N</text></g><!--link Message to Queue--><g id="link_Message_Queue"><path codeLine="50" d="M426.85,583.56 C470.78,545.38 549.61,469.85 630.79,428 C675.17,405.12 730.5,391.27 767.57,383.49 " fill="#FFFFFF" fill-opacity="0.00000" id="Message-Queue-1" style="stroke:#181818;stroke-width:1;"/><text fill="#000000" font-family="sans-serif" font-size="13" lengthAdjust="spacing" textLength="26.2603" x="438.1089" y="572.8577">1..N</text><text fill="#000000" font-family="sans-serif" font-size="13" lengthAdjust="spacing" textLength="26.2603" x="733.5943" y="398.1687">0..N</text></g><!--link Message to Queue--><g id="link_Message_Queue"><path codeLine="59" d="M440.94,584.1 C473.05,568.02 516.2,545.45 552.79,523 C584.32,503.65 589.33,494.46 620.79,475 C670.05,444.53 724.001,416.2784 762.191,397.0484 " fill="#FFFFFF" fill-opacity="0.00000" id="Message-to-Queue" style="stroke:#181818;stroke-width:1;"/><polygon fill="#181818" points="767.55,394.35,757.7126,394.825,763.0842,396.5987,761.3105,401.9703,767.55,394.35" style="stroke:#181818;stroke-width:1;"/><text fill="#000000" font-family="sans-serif" font-size="13" lengthAdjust="spacing" textLength="175.9761" x="621.79" y="503.5669">stored before consumption</text></g><!--link Message to Exchange--><g id="link_Message_Exchange"><path codeLine="23" d="M394.84,583.76 C405.58,557.12 432.1,512.32 456.79,475 C506.72,399.53 570.68,313.56 607.87,273.22 " fill="#FFFFFF" fill-opacity="0.00000" id="Message-Exchange" style="stroke:#181818;stroke-width:1;"/><text fill="#000000" font-family="sans-serif" font-size="13" lengthAdjust="spacing" textLength="26.2603" x="398.2965" y="573.1065">0..N</text><text fill="#000000" font-family="sans-serif" font-size="13" lengthAdjust="spacing" textLength="26.2603" x="596.1814" y="293.0348">1..N</text></g><!--link Message to Exchange--><g id="link_Message_Exchange"><path codeLine="51" d="M420.13,583.76 C440.58,557.12 467.1,512.32 491.79,475 C541.72,399.53 605.68,313.56 629.01,273.22 " fill="#FFFFFF" fill-opacity="0.00000" id="Message-Exchange-1" style="stroke:#181818;stroke-width:1;"/><text fill="#000000" font-family="sans-serif" font-size="13" lengthAdjust="spacing" textLength="26.2603" x="429.7509" y="573.1065">0..N</text><text fill="#000000" font-family="sans-serif" font-size="13" lengthAdjust="spacing" textLength="26.2603" x="630.5587" y="293.0348">0..N</text></g><!--link Message to BasicProperties--><g id="link_Message_BasicProperties"><path codeLine="24" d="M407.9,632.42 C427.36,654.31 461.18,686.8 487.25,708.66 " fill="#FFFFFF" fill-opacity="0.00000" id="Message-BasicProperties" style="stroke:#181818;stroke-width:1;"/><text fill="#000000" font-family="sans-serif" font-size="13" lengthAdjust="spacing" textLength="24.8066" x="384.4813" y="651.8838">1..1</text><text fill="#000000" font-family="sans-serif" font-size="13" lengthAdjust="spacing" textLength="26.2603" x="449.6926" y="697.9821">1..N</text></g><!--link Message to BasicProperties--><g id="link_Message_BasicProperties"><path codeLine="52" d="M429.04,632.42 C455.33,654.31 489.13,686.8 508.36,708.66 " fill="#FFFFFF" fill-opacity="0.00000" id="Message-BasicProperties-1" style="stroke:#181818;stroke-width:1;"/><text fill="#000000" font-family="sans-serif" font-size="13" lengthAdjust="spacing" textLength="24.8066" x="440.0599" y="651.8838">1..1</text><text fill="#000000" font-family="sans-serif" font-size="13" lengthAdjust="spacing" textLength="26.2603" x="508.2857" y="697.9821">0..N</text></g><!--reverse link Consumer to SelectiveConsumer--><g id="link_Consumer_SelectiveConsumer"><path codeLine="29" d="M833.9889,536.94 C818.1489,554.78 808.42,565.75 792.59,583.57 " fill="#FFFFFF" fill-opacity="0.00000" id="Consumer-backto-SelectiveConsumer" style="stroke:#181818;stroke-width:1;"/><polygon fill="#FFFFFF" fill-opacity="0.00000" points="845.94,523.48,829.5023,532.9563,838.4756,540.9237,845.94,523.48" style="stroke:#181818;stroke-width:1;"/></g><!--reverse link Consumer to CompetingConsumer--><g id="link_Consumer_CompetingConsumer"><path codeLine="30" d="M922.9722,532.4909 C953.8222,550.3309 980.46,565.75 1011.29,583.57 " fill="#FFFFFF" fill-opacity="0.00000" id="Consumer-backto-CompetingConsumer" style="stroke:#181818;stroke-width:1;"/><polygon fill="#FFFFFF" fill-opacity="0.00000" points="907.39,523.48,919.9685,537.6849,925.9758,527.2968,907.39,523.48" style="stroke:#181818;stroke-width:1;"/></g><!--reverse link Consumer to RPCServer--><g id="link_Consumer_RPCServer"><path codeLine="31" d="M797.6702,520.1507 C788.6202,522.7907 796.57,520.46 787.79,523 C741.59,536.39 729.63,538.41 683.79,553 C649.71,563.84 611.8,577.03 581.99,587.66 " fill="#FFFFFF" fill-opacity="0.00000" id="Consumer-backto-RPCServer" style="stroke:#181818;stroke-width:1;"/><polygon fill="#FFFFFF" fill-opacity="0.00000" points="814.95,515.11,795.99,514.3908,799.3505,525.9107,814.95,515.11" style="stroke:#181818;stroke-width:1;"/></g><!--reverse link Consumer to ConnectionFactory--><g id="link_Consumer_ConnectionFactory"><path codeLine="32" d="M930.5488,515.1853 C945.6588,518.6953 950.52,519.74 965.79,523 C1104.39,552.6 1140.19,554.4 1278.79,584 C1284.31,585.18 1290,586.42 1295.73,587.7 " fill="#FFFFFF" fill-opacity="0.00000" id="Consumer-backto-ConnectionFactory" style="stroke:#181818;stroke-width:1;"/><polygon fill="#181818" points="918.86,512.47,923.7993,517.7239,930.5488,515.1853,925.6095,509.9314,918.86,512.47" style="stroke:#181818;stroke-width:1;"/></g><!--link Consumer to Connection--><g id="link_Consumer_Connection"><path codeLine="33" d="M874.39,523.38 C885.18,552.93 907.73,603.39 943.79,632 C1023.46,695.19 1143.05,718.62 1212.78,727.19 " fill="#FFFFFF" fill-opacity="0.00000" id="Consumer-Connection" style="stroke:#181818;stroke-width:1;"/></g><!--link Consumer to Channel--><g id="link_Consumer_Channel"><path codeLine="34" d="M814.61,520.83 C758.12,543.62 675.39,577.74 670.79,584 C618.5,655.21 631.29,769.01 639.97,817.69 " fill="#FFFFFF" fill-opacity="0.00000" id="Consumer-Channel" style="stroke:#181818;stroke-width:1;"/><text fill="#000000" font-family="sans-serif" font-size="13" lengthAdjust="spacing" textLength="26.2603" x="609.6585" y="807.0194">1..N</text></g><!--link Consumer to Queue--><g id="link_Consumer_Queue"><path codeLine="35" d="M847.68,474.75 C841.03,465.84 833.95,455.33 828.79,445 C821.39,430.18 815.83,412.37 812.15,398.41 " fill="#FFFFFF" fill-opacity="0.00000" id="Consumer-Queue" style="stroke:#181818;stroke-width:1;"/><text fill="#000000" font-family="sans-serif" font-size="13" lengthAdjust="spacing" textLength="26.2603" x="784.4142" y="417.8714">1..N</text></g><!--link Queue to Consumer--><g id="link_Queue_Consumer"><path codeLine="60" d="M818.22,398.42 C828.89,420.31 842.1081,447.408 852.7781,469.268 " fill="#FFFFFF" fill-opacity="0.00000" id="Queue-to-Consumer" style="stroke:#181818;stroke-width:1;"/><polygon fill="#181818" points="855.41,474.66,855.0569,464.8175,853.2168,470.1667,847.8676,468.3266,855.41,474.66" style="stroke:#181818;stroke-width:1;"/><text fill="#000000" font-family="sans-serif" font-size="13" lengthAdjust="spacing" textLength="119.1646" x="840.79" y="441.0669">delivers Messages</text></g><!--link Consumer to Exchange--><g id="link_Consumer_Exchange"><path codeLine="36" d="M814.75,475.49 C758.55,447.99 672.07,395.58 634.79,320 C627.69,305.61 628.18,287.45 630.32,273.23 " fill="#FFFFFF" fill-opacity="0.00000" id="Consumer-Exchange" style="stroke:#181818;stroke-width:1;"/><text fill="#000000" font-family="sans-serif" font-size="13" lengthAdjust="spacing" textLength="26.2603" x="579.1073" y="293.392">0..N</text></g><!--link Consumer to Binding--><g id="link_Consumer_Binding"><path codeLine="37" d="M918.84,513.36 C977.77,528.85 1076.43,555.87 1159.79,584 C1165.1,585.79 1170.64,587.78 1176.1,589.82 " fill="#FFFFFF" fill-opacity="0.00000" id="Consumer-Binding" style="stroke:#181818;stroke-width:1;"/><text fill="#000000" font-family="sans-serif" font-size="13" lengthAdjust="spacing" textLength="26.2603" x="1141.9394" y="583.1249">1..N</text></g><!--link Consumer to Message--><g id="link_Consumer_Message"><path codeLine="38" d="M814.72,515.96 C805.78,518.47 796.55,520.92 787.79,523 C643.11,557.38 602.44,545.52 458.79,584 C452.89,585.58 446.77,587.44 440.74,589.41 " fill="#FFFFFF" fill-opacity="0.00000" id="Consumer-Message" style="stroke:#181818;stroke-width:1;"/><text fill="#000000" font-family="sans-serif" font-size="13" lengthAdjust="spacing" textLength="26.2603" x="780.805" y="531.0161">0..N</text><text fill="#000000" font-family="sans-serif" font-size="13" lengthAdjust="spacing" textLength="26.2603" x="441.5058" y="598.782">0..N</text></g><!--link CompetingConsumer to Queue--><g id="link_CompetingConsumer_Queue"><path codeLine="40" d="M1047.25,583.66 C1038.65,545.64 1016.42,470.32 968.79,428 C934.39,397.44 882.01,384.45 846.18,378.96 " fill="#FFFFFF" fill-opacity="0.00000" id="CompetingConsumer-Queue" style="stroke:#181818;stroke-width:1;"/><text fill="#000000" font-family="sans-serif" font-size="13" lengthAdjust="spacing" textLength="100.5723" x="1028.79" y="503.5669">assignedQueue</text><text fill="#000000" font-family="sans-serif" font-size="13" lengthAdjust="spacing" textLength="26.2603" x="1017.0057" y="572.9821">1..N</text><text fill="#000000" font-family="sans-serif" font-size="13" lengthAdjust="spacing" textLength="24.8066" x="853.7877" y="392.8667">1..1</text></g><!--reverse link Connection to Channel--><g id="link_Connection_Channel"><path codeLine="42" d="M1201.0426,745.6181 C1078.6926,766.5981 801.14,814.19 689.66,833.31 " fill="#FFFFFF" fill-opacity="0.00000" id="Connection-backto-Channel" style="stroke:#181818;stroke-width:1;"/><polygon fill="#181818" points="1212.87,743.59,1206.2803,740.6616,1201.0426,745.6181,1207.6323,748.5465,1212.87,743.59" style="stroke:#181818;stroke-width:1;"/><text fill="#000000" font-family="sans-serif" font-size="13" lengthAdjust="spacing" textLength="26.2603" x="697.454" y="828.2103">0..N</text></g><!--link Exchange to Binding--><g id="link_Exchange_Binding"><path codeLine="43" d="M686.39,254.9 C740.64,261.34 828.57,275.27 899.79,303 C1037.3,356.55 1084.31,366.01 1183.79,475 C1210.06,503.78 1222.89,515.05 1221.79,554 C1221.52,563.67 1220.96,574.33 1220.41,583.53 " fill="#FFFFFF" fill-opacity="0.00000" id="Exchange-Binding" style="stroke:#181818;stroke-width:1;"/><text fill="#000000" font-family="sans-serif" font-size="13" lengthAdjust="spacing" textLength="24.8066" x="694.0689" y="251.78">1..1</text></g><!--link Queue to Binding--><g id="link_Queue_Binding"><path codeLine="44" d="M846.1,377.46 C912.94,383.53 1049.99,404.33 1137.79,475 C1174.03,504.17 1198.28,554.19 1210.2,583.57 " fill="#FFFFFF" fill-opacity="0.00000" id="Queue-Binding" style="stroke:#181818;stroke-width:1;"/><text fill="#000000" font-family="sans-serif" font-size="13" lengthAdjust="spacing" textLength="24.8066" x="853.696" y="391.1464">1..1</text></g><!--link RPCServer to BasicProperties--><g id="link_RPCServer_BasicProperties"><path codeLine="47" d="M527.46,632.42 C526.21,654.31 524.36,686.8 523.12,708.66 " fill="#FFFFFF" fill-opacity="0.00000" id="RPCServer-BasicProperties" style="stroke:#181818;stroke-width:1;"/><text fill="#000000" font-family="sans-serif" font-size="13" lengthAdjust="spacing" textLength="48.7944" x="526.79" y="675.0669">replyTo</text></g><!--link Producer to Consumer--><g id="link_Producer_Consumer"><path codeLine="57" d="M711.22,37.05 C618.33,48.24 421.79,79 421.79,139 C421.79,139 421.79,139 421.79,312.5 C421.79,459.89 589.19,389.66 725.79,445 C760.99,459.26 770.25,461.63 805.79,475 C808.76,476.12 806.185,475.1453 809.265,476.3053 " fill="#FFFFFF" fill-opacity="0.00000" id="Producer-to-Consumer" style="stroke:#181818;stroke-width:1;stroke-dasharray:7.0,7.0;"/><polygon fill="#181818" points="814.88,478.42,807.8674,471.5046,810.2009,476.6577,805.0477,478.9912,814.88,478.42" style="stroke:#181818;stroke-width:1;"/><text fill="#000000" font-family="sans-serif" font-size="13" lengthAdjust="spacing" textLength="105.917" x="422.79" y="253.5669">sends Messages</text></g><!--SRC=[dLJBQeD05Dtx5PSi6YWOacre2usn9T2Or1YwjdgJ31WDCrfQwCTtr7dvwilDo3rdxlFC7T_sVzOOjlvckNTS7zPkSB_UBDqdQpp4tj8iBYAaSFDfsx086OcsnMj2s0bf2_pHxcJfWT0pQ-7-rd4IWcckxTVSF9fD9ju8-AKKevnawKCOvHdzqAoICG9DNIDZuH4reSzBBteAEPpqGSy55joZBC50tFU8NpiQeAolZzGfewhHI6k0838JfzcOEhC6C6t6b3-WiUhI76XMv2ZQ5MIM9NubgziPHPWfWk5m-BxAnNGmCncrf6XsGPeJPDQm5CVWRBpTVlqxuV9-ik8iDRR3f6pk6qfp2tUoymLpaXu7SAxH7T8tqzwSdnIdWZlJLUPMQtiWCLeJc7RarBwq86dC2z2GCOnfutrOdMg53-5i9ZA0EOICaMEAiSgeHwF2Uw-M6mHHi99b7QjSAoBrEggMY2hf6v5RQZIW5fHI4rSwNfAFXiJR2lw_nAVVILmJ_gBmbHUuZ_vziDfui7235zVrzBg-KW_W5_jwCha3DTuvC4nZ9XN0z0nkIfwSThKM39QioBOrX_6vOmolUE0dH5M4IpNrcb5oZRWn9lpLKUtq2m00]--></g></svg>