<svg xmlns="http://www.w3.org/2000/svg" xmlns:xlink="http://www.w3.org/1999/xlink" contentStyleType="text/css" data-diagram-type="DESCRIPTION" height="836px" preserveAspectRatio="none" style="width:1118px;height:836px;background:#FFFFFF;" version="1.1" viewBox="0 0 1118 836" width="1118px" zoomAndPan="magnify"><defs/><g><!--cluster Message Broker System--><g id="cluster_Message Broker System"><path d="M25.8,6 L216.8254,6 A3.75,3.75 0 0 1 219.3254,8.5 L226.3254,28.2969 L1108.8,28.2969 A2.5,2.5 0 0 1 1111.3,30.7969 L1111.3,827.28 A2.5,2.5 0 0 1 1108.8,829.78 L25.8,829.78 A2.5,2.5 0 0 1 23.3,827.28 L23.3,8.5 A2.5,2.5 0 0 1 25.8,6 " fill="#FFFFFF" fill-opacity="0.00000" style="stroke:#000000;stroke-width:1.5;"/><line style="stroke:#000000;stroke-width:1.5;" x1="23.3" x2="226.3254" y1="28.2969" y2="28.2969"/><text fill="#000000" font-family="sans-serif" font-size="14" font-weight="bold" lengthAdjust="spacing" textLength="190.0254" x="27.3" y="20.9951">Message Broker System</text></g><!--cluster Producer--><g id="cluster_Producer"><rect fill="#FFFFFF" fill-opacity="0.00000" height="235.59" rx="2.5" ry="2.5" style="stroke:#181818;stroke-width:1;" width="490" x="55.3" y="57"/><text fill="#000000" font-family="sans-serif" font-size="14" font-weight="bold" lengthAdjust="spacing" textLength="71.4697" x="264.5651" y="71.9951">Producer</text></g><!--cluster Consumer--><g id="cluster_Consumer"><rect fill="#FFFFFF" fill-opacity="0.00000" height="235.59" rx="2.5" ry="2.5" style="stroke:#181818;stroke-width:1;" width="386" x="394.3" y="470.89"/><text fill="#000000" font-family="sans-serif" font-size="14" font-weight="bold" lengthAdjust="spacing" textLength="79.1465" x="547.7268" y="485.8851">Consumer</text></g><!--entity Exchange--><g id="elem_Exchange"><rect fill="#F1F1F1" height="36.2969" rx="2.5" ry="2.5" style="stroke:#181818;stroke-width:0.5;" width="88.6533" x="144.97" y="646.19"/><text fill="#000000" font-family="sans-serif" font-size="14" lengthAdjust="spacing" textLength="68.6533" x="154.97" y="669.1851">Exchange</text></g><!--entity Queue--><g id="elem_Queue"><rect fill="#F1F1F1" height="36.2969" rx="2.5" ry="2.5" style="stroke:#181818;stroke-width:0.5;" width="65.9922" x="270.3" y="777.48"/><text fill="#000000" font-family="sans-serif" font-size="14" lengthAdjust="spacing" textLength="45.9922" x="280.3" y="800.4751">Queue</text></g><!--entity ProducerConnectionFactory--><g id="elem_ProducerConnectionFactory"><rect fill="#F1F1F1" height="36.2969" rx="2.5" ry="2.5" style="stroke:#181818;stroke-width:0.5;" width="214.2295" x="569.19" y="232.3"/><text fill="#000000" font-family="sans-serif" font-size="14" lengthAdjust="spacing" textLength="194.2295" x="579.19" y="255.2951">ProducerConnectionFactory</text></g><!--entity ProducerConnection--><g id="elem_ProducerConnection"><rect fill="#F1F1F1" height="36.2969" rx="2.5" ry="2.5" style="stroke:#181818;stroke-width:0.5;" width="161.8047" x="273.4" y="363.59"/><text fill="#000000" font-family="sans-serif" font-size="14" lengthAdjust="spacing" textLength="141.8047" x="283.4" y="386.5851">ProducerConnection</text></g><!--entity ProducerChannel--><g id="elem_ProducerChannel"><rect fill="#F1F1F1" height="36.2969" rx="2.5" ry="2.5" style="stroke:#181818;stroke-width:0.5;" width="140.0664" x="76.27" y="532.89"/><text fill="#000000" font-family="sans-serif" font-size="14" lengthAdjust="spacing" textLength="120.0664" x="86.27" y="555.8851">ProducerChannel</text></g><!--entity ConsumerConnectionFactory--><g id="elem_ConsumerConnectionFactory"><rect fill="#F1F1F1" height="36.2969" rx="2.5" ry="2.5" style="stroke:#181818;stroke-width:0.5;" width="223.0273" x="868.79" y="363.59"/><text fill="#000000" font-family="sans-serif" font-size="14" lengthAdjust="spacing" textLength="203.0273" x="878.79" y="386.5851">ConsumerConnectionFactory</text></g><!--entity ConsumerConnection--><g id="elem_ConsumerConnection"><rect fill="#F1F1F1" height="36.2969" rx="2.5" ry="2.5" style="stroke:#181818;stroke-width:0.5;" width="170.6025" x="925" y="532.89"/><text fill="#000000" font-family="sans-serif" font-size="14" lengthAdjust="spacing" textLength="150.6025" x="935" y="555.8851">ConsumerConnection</text></g><!--entity ConsumerChannel--><g id="elem_ConsumerChannel"><rect fill="#F1F1F1" height="36.2969" rx="2.5" ry="2.5" style="stroke:#181818;stroke-width:0.5;" width="148.8643" x="946.87" y="646.19"/><text fill="#000000" font-family="sans-serif" font-size="14" lengthAdjust="spacing" textLength="128.8643" x="956.87" y="669.1851">ConsumerChannel</text></g><!--entity Message--><g id="elem_Message"><rect fill="#F1F1F1" height="36.2969" rx="2.5" ry="2.5" style="stroke:#181818;stroke-width:0.5;" width="81.3594" x="288.62" y="532.89"/><text fill="#000000" font-family="sans-serif" font-size="14" lengthAdjust="spacing" textLength="61.3594" x="298.62" y="555.8851">Message</text></g><!--entity BasicPublisher--><g id="elem_BasicPublisher"><rect fill="#F1F1F1" height="36.2969" rx="2.5" ry="2.5" style="stroke:#181818;stroke-width:0.5;" width="121.582" x="380.51" y="119"/><text fill="#000000" font-family="sans-serif" font-size="14" lengthAdjust="spacing" textLength="101.582" x="390.51" y="141.9951">BasicPublisher</text></g><!--entity Publisher--><g id="elem_Publisher"><rect fill="#F1F1F1" height="36.2969" rx="2.5" ry="2.5" style="stroke:#181818;stroke-width:0.5;" width="84.5176" x="79.04" y="119"/><text fill="#000000" font-family="sans-serif" font-size="14" lengthAdjust="spacing" textLength="64.5176" x="89.04" y="141.9951">Publisher</text></g><!--entity PublisherConfirms--><g id="elem_PublisherConfirms"><rect fill="#F1F1F1" height="36.2969" rx="2.5" ry="2.5" style="stroke:#181818;stroke-width:0.5;" width="147.2373" x="198.68" y="119"/><text fill="#000000" font-family="sans-serif" font-size="14" lengthAdjust="spacing" textLength="127.2373" x="208.68" y="141.9951">PublisherConfirms</text></g><!--entity RPCClient--><g id="elem_RPCClient"><rect fill="#F1F1F1" height="36.2969" rx="2.5" ry="2.5" style="stroke:#181818;stroke-width:0.5;" width="88.4756" x="79.06" y="232.3"/><text fill="#000000" font-family="sans-serif" font-size="14" lengthAdjust="spacing" textLength="68.4756" x="89.06" y="255.2951">RPCClient</text></g><!--entity BasicConsumer--><g id="elem_BasicConsumer"><rect fill="#F1F1F1" height="36.2969" rx="2.5" ry="2.5" style="stroke:#181818;stroke-width:0.5;" width="128.4521" x="418.07" y="532.89"/><text fill="#000000" font-family="sans-serif" font-size="14" lengthAdjust="spacing" textLength="108.4521" x="428.07" y="555.8851">BasicConsumer</text></g><!--entity SelectiveConsumer--><g id="elem_SelectiveConsumer"><rect fill="#F1F1F1" height="36.2969" rx="2.5" ry="2.5" style="stroke:#181818;stroke-width:0.5;" width="155.3652" x="581.62" y="532.89"/><text fill="#000000" font-family="sans-serif" font-size="14" lengthAdjust="spacing" textLength="135.3652" x="591.62" y="555.8851">SelectiveConsumer</text></g><!--entity CompetingConsumer--><g id="elem_CompetingConsumer"><rect fill="#F1F1F1" height="36.2969" rx="2.5" ry="2.5" style="stroke:#181818;stroke-width:0.5;" width="168.0049" x="418.3" y="646.19"/><text fill="#000000" font-family="sans-serif" font-size="14" lengthAdjust="spacing" textLength="148.0049" x="428.3" y="669.1851">CompetingConsumer</text></g><!--entity RPCServer--><g id="elem_RPCServer"><rect fill="#F1F1F1" height="36.2969" rx="2.5" ry="2.5" style="stroke:#181818;stroke-width:0.5;" width="93.8555" x="621.37" y="646.19"/><text fill="#000000" font-family="sans-serif" font-size="14" lengthAdjust="spacing" textLength="73.8555" x="631.37" y="669.1851">RPCServer</text></g><!--link Producer to Exchange--><g id="link_Producer_Exchange"><path d="M545.4282,138.3703 C545.5621,138.3754 545.6974,138.3806 545.8343,138.3859 C546.3817,138.407 546.9534,138.43 547.5486,138.4551 C548.7391,138.5051 550.0239,138.5633 551.3981,138.6308 C554.1465,138.7657 557.2524,138.9381 560.6759,139.1581 C574.37,140.0381 593.1462,141.68 614.455,144.7375 C657.0725,150.8525 709.82,162.63 752.3,185.3 C804.32,213.06 836.49,261.27 801.3,308.59 C797.32,313.95 347.83,445.54 341.3,446.89 C325.96,450.04 283.42,444.97 271.3,454.89 C229.98,488.7 259.13,521.91 234.3,569.19 C226.49,584.06 219.24,584.38 211.3,599.19 C203.29,614.13 198.9345,626.7785 195.2545,640.0385 " fill="#FFFFFF" fill-opacity="0.00000" id="Producer-to-Exchange" style="stroke:#181818;stroke-width:1;"/><polygon fill="#181818" points="193.65,645.82,199.9111,638.2175,194.9871,641.0021,192.2024,636.0781,193.65,645.82" style="stroke:#181818;stroke-width:1;"/><text fill="#000000" font-family="sans-serif" font-size="13" lengthAdjust="spacing" textLength="122.4463" x="625.3" y="386.3069">Publishes Message</text></g><!--link Exchange to Queue--><g id="link_Exchange_Queue"><path d="M183.15,682.68 C178,700.52 173.36,728.32 186.3,747.48 C204.87,774.98 236.5181,785.4154 264.0981,790.1954 " fill="#FFFFFF" fill-opacity="0.00000" id="Exchange-to-Queue" style="stroke:#181818;stroke-width:1;"/><polygon fill="#181818" points="270.01,791.22,261.8253,785.7418,265.0834,790.3662,260.4591,793.6243,270.01,791.22" style="stroke:#181818;stroke-width:1;"/><text fill="#000000" font-family="sans-serif" font-size="13" lengthAdjust="spacing" textLength="106.2026" x="187.3" y="743.5469">Routes Message</text></g><!--link Queue to Consumer--><g id="link_Queue_Consumer"><path d="M336.79,794.29 C431.16,792.6 696.12,782.48 753.3,722.48 C756.535,719.0863 759.2616,713.947 761.5558,707.5433 C761.6275,707.3432 759.7179,712.8054 759.7887,712.6028 " fill="#FFFFFF" fill-opacity="0.00000" id="Queue-to-Consumer" style="stroke:#181818;stroke-width:1;"/><polygon fill="#181818" points="761.7697,706.9392,755.0225,714.1139,760.1189,711.6589,762.5739,716.7552,761.7697,706.9392" style="stroke:#181818;stroke-width:1;"/><text fill="#000000" font-family="sans-serif" font-size="13" lengthAdjust="spacing" textLength="114.1499" x="772.3" y="668.8969">Delivers Message</text></g><!--link Producer to ProducerConnectionFactory--><g id="link_Producer_ProducerConnectionFactory"><path d="M545.4526,144.679 C545.6523,144.8389 545.8553,145.0015 546.0614,145.1665 C547.7105,146.487 549.5619,147.9694 551.5887,149.5923 C559.6963,156.0841 570.6125,164.8244 582.63,174.4463 C606.665,193.69 630.4212,212.71 649.6062,228.07 " fill="#FFFFFF" fill-opacity="0.00000" id="Producer-to-ProducerConnectionFactory" style="stroke:#181818;stroke-width:1;"/><polygon fill="#181818" points="654.29,231.82,649.7643,223.0725,650.3868,228.695,644.7644,229.3176,654.29,231.82" style="stroke:#181818;stroke-width:1;"/><text fill="#000000" font-family="sans-serif" font-size="13" lengthAdjust="spacing" textLength="127.9434" x="616.3" y="198.3669">Creates Connection</text></g><!--link ProducerConnectionFactory to ProducerConnection--><g id="link_ProducerConnectionFactory_ProducerConnection"><path d="M632.54,269.02 C571.06,293.7 465.358,336.1445 403.788,360.8645 " fill="#FFFFFF" fill-opacity="0.00000" id="ProducerConnectionFactory-to-ProducerConnection" style="stroke:#181818;stroke-width:1;"/><polygon fill="#181818" points="398.22,363.1,408.0623,363.4587,402.86,361.2371,405.0816,356.0347,398.22,363.1" style="stroke:#181818;stroke-width:1;"/><text fill="#000000" font-family="sans-serif" font-size="13" lengthAdjust="spacing" textLength="58.4111" x="507.3" y="329.6569">Manages</text></g><!--link ProducerConnection to ProducerChannel--><g id="link_ProducerConnection_ProducerChannel"><path d="M332.44,400.35 C314.57,414.2 288.27,433.34 263.3,446.89 C254.89,451.46 251.32,449.66 243.3,454.89 C209.72,476.8 181.8182,506.9749 164.2782,527.8649 " fill="#FFFFFF" fill-opacity="0.00000" id="ProducerConnection-to-ProducerChannel" style="stroke:#181818;stroke-width:1;"/><polygon fill="#181818" points="160.42,532.46,169.2706,528.1395,163.6351,528.6308,163.1439,522.9953,160.42,532.46" style="stroke:#181818;stroke-width:1;"/><text fill="#000000" font-family="sans-serif" font-size="13" lengthAdjust="spacing" textLength="41.4946" x="291.3" y="442.9569">Opens</text></g><!--link ProducerChannel to Exchange--><g id="link_ProducerChannel_Exchange"><path d="M144.14,569.55 C143.2,582.82 143.42,601.25 149.3,616.19 C153.71,627.37 157.7583,633.4683 165.5983,641.6483 " fill="#FFFFFF" fill-opacity="0.00000" id="ProducerChannel-to-Exchange" style="stroke:#181818;stroke-width:1;"/><polygon fill="#181818" points="169.75,645.98,166.4103,636.7147,166.2903,642.3702,160.6347,642.2502,169.75,645.98" style="stroke:#181818;stroke-width:1;"/><text fill="#000000" font-family="sans-serif" font-size="13" lengthAdjust="spacing" textLength="35.7944" x="150.3" y="612.2569">Binds</text></g><!--link Consumer to ConsumerConnectionFactory--><g id="link_Consumer_ConsumerConnectionFactory"><path d="M767.0622,470.4852 C767.1738,470.1861 767.2878,469.8881 767.4043,469.5912 C767.6374,468.9974 767.8803,468.408 768.1333,467.8234 C770.1578,463.1467 772.8325,458.7763 776.3,454.89 C783.94,446.33 816.42,450.52 827.3,446.89 C842.58,441.79 844.66,436.6 859.3,429.89 C882.56,419.22 903.3646,410.8637 925.5746,402.5037 " fill="#FFFFFF" fill-opacity="0.00000" id="Consumer-to-ConsumerConnectionFactory" style="stroke:#181818;stroke-width:1;"/><polygon fill="#181818" points="931.19,400.39,921.3578,399.8169,926.5105,402.1514,924.1761,407.3041,931.19,400.39" style="stroke:#181818;stroke-width:1;"/><text fill="#000000" font-family="sans-serif" font-size="13" lengthAdjust="spacing" textLength="127.9434" x="860.3" y="442.9569">Creates Connection</text></g><!--link ConsumerConnectionFactory to ConsumerConnection--><g id="link_ConsumerConnectionFactory_ConsumerConnection"><path d="M987.12,399.95 C990.36,408.78 994.02,419.77 996.3,429.89 C1004.42,465.95 1007.6233,503.2212 1009.0633,526.7412 " fill="#FFFFFF" fill-opacity="0.00000" id="ConsumerConnectionFactory-to-ConsumerConnection" style="stroke:#181818;stroke-width:1;"/><polygon fill="#181818" points="1009.43,532.73,1012.8725,523.5024,1009.1244,527.7393,1004.8875,523.9913,1009.43,532.73" style="stroke:#181818;stroke-width:1;"/><text fill="#000000" font-family="sans-serif" font-size="13" lengthAdjust="spacing" textLength="58.4111" x="1000.3" y="442.9569">Manages</text></g><!--link ConsumerConnection to ConsumerChannel--><g id="link_ConsumerConnection_ConsumerChannel"><path d="M1012.02,569.43 C1014.07,590.21 1016.8986,618.8292 1018.9686,639.7292 " fill="#FFFFFF" fill-opacity="0.00000" id="ConsumerConnection-to-ConsumerChannel" style="stroke:#181818;stroke-width:1;"/><polygon fill="#181818" points="1019.56,645.7,1022.6535,636.3496,1019.0672,640.7243,1014.6924,637.1381,1019.56,645.7" style="stroke:#181818;stroke-width:1;"/><text fill="#000000" font-family="sans-serif" font-size="13" lengthAdjust="spacing" textLength="41.4946" x="1017.3" y="612.2569">Opens</text></g><!--link ConsumerChannel to Queue--><g id="link_ConsumerChannel_Queue"><path d="M995.37,682.91 C975.58,695.58 947.22,712.21 920.3,722.48 C811.73,763.91 454.7209,786.3898 342.5809,792.5698 " fill="#FFFFFF" fill-opacity="0.00000" id="ConsumerChannel-to-Queue" style="stroke:#181818;stroke-width:1;"/><polygon fill="#181818" points="336.59,792.9,345.7965,796.3987,341.5824,792.6249,345.3563,788.4108,336.59,792.9" style="stroke:#181818;stroke-width:1;"/><text fill="#000000" font-family="sans-serif" font-size="13" lengthAdjust="spacing" textLength="56.8496" x="894.3" y="743.5469">Declares</text></g><!--link Message to Exchange--><g id="link_Message_Exchange"><path d="M288.23,566.68 C270.1,574.48 249.31,585.34 233.3,599.19 C218.18,612.26 208.7338,626.404 201.0038,640.444 " fill="#FFFFFF" fill-opacity="0.00000" id="Message-to-Exchange" style="stroke:#181818;stroke-width:1;"/><polygon fill="#181818" points="198.11,645.7,205.9547,639.7452,200.5215,641.32,198.9467,635.8867,198.11,645.7" style="stroke:#181818;stroke-width:1;"/><text fill="#000000" font-family="sans-serif" font-size="13" lengthAdjust="spacing" textLength="82.8433" x="234.3" y="612.2569">Published To</text></g><!--link Message to Queue--><g id="link_Message_Queue"><path d="M327.43,569.48 C322.64,614.14 310.6286,726.2141 305.8286,771.0541 " fill="#FFFFFF" fill-opacity="0.00000" id="Message-to-Queue" style="stroke:#181818;stroke-width:1;"/><polygon fill="#181818" points="305.19,777.02,310.1252,768.4969,305.7222,772.0484,302.1707,767.6454,305.19,777.02" style="stroke:#181818;stroke-width:1;"/><text fill="#000000" font-family="sans-serif" font-size="13" lengthAdjust="spacing" textLength="65.4316" x="320.3" y="668.8969">Enqueued</text></g><!--link Producer to Message--><g id="link_Producer_Message"><path d="M545.512,138.1242 C545.8888,138.1247 546.2775,138.1253 546.6781,138.1262 C547.4791,138.1279 548.3271,138.1305 549.2205,138.1342 C556.3676,138.1639 566.4159,138.2638 578.498,138.5394 C602.6622,139.0906 634.9619,140.345 668.4587,143.1475 C735.4525,148.7525 807.235,160.55 828.3,185.3 C863.81,227.03 851.84,259.11 828.3,308.59 C786.47,396.55 749.56,412.84 658.3,446.89 C631.64,456.84 427.62,441.9 402.3,454.89 C369.88,471.51 350.2581,504.4569 339.4481,527.0669 " fill="#FFFFFF" fill-opacity="0.00000" id="Producer-to-Message" style="stroke:#181818;stroke-width:1;stroke-dasharray:7.0,7.0;"/><polygon fill="#181818" points="336.86,532.48,344.3508,526.0857,339.0167,527.9691,337.1333,522.6349,336.86,532.48" style="stroke:#181818;stroke-width:1;"/><text fill="#000000" font-family="sans-serif" font-size="13" lengthAdjust="spacing" textLength="59.5474" x="824.3" y="329.6569">Produces</text></g><!--link Consumer to Message--><g id="link_Consumer_Message"><path d="M761.6786,470.6187 C761.34,470.1451 760.9933,469.6775 760.6381,469.2162 C759.9279,468.2935 759.184,467.3959 758.4051,466.5261 C756.8473,464.7864 755.1494,463.1575 753.3,461.66 C692.68,412.58 472.77,428.23 402.3,461.66 C371.53,476.26 352.2228,505.5696 340.8528,527.1896 " fill="#FFFFFF" fill-opacity="0.00000" id="Consumer-to-Message" style="stroke:#181818;stroke-width:1;stroke-dasharray:7.0,7.0;"/><polygon fill="#181818" points="338.06,532.5,345.7894,526.3962,340.3873,528.0747,338.7089,522.6725,338.06,532.5" style="stroke:#181818;stroke-width:1;"/><text fill="#000000" font-family="sans-serif" font-size="13" lengthAdjust="spacing" textLength="67.7168" x="582.8" y="442.9569">Consumes</text></g><!--link BasicPublisher to Queue--><g id="link_BasicPublisher_Queue"><path d="M414.7,155.67 C334.35,209.22 97.25,372.13 58.3,454.89 C6,566.02 44.18,632.06 127.3,722.48 C165.29,763.81 224.5482,780.9358 264.0282,788.5358 " fill="#FFFFFF" fill-opacity="0.00000" id="BasicPublisher-to-Queue" style="stroke:#181818;stroke-width:1;"/><polygon fill="#181818" points="269.92,789.67,261.8384,784.0408,265.0101,788.7248,260.3261,791.8966,269.92,789.67" style="stroke:#181818;stroke-width:1;"/><text fill="#000000" font-family="sans-serif" font-size="13" lengthAdjust="spacing" textLength="115.9844" x="75.3" y="442.9569">Publishes Directly</text></g><!--SRC=[bLJBReCm4Bpp5QlSqm_88OUGz1Or3RqX3gxP9bQCJMqJ5LNvzzgyCH2f713ixipEB6lqZOcSA981bLak1GeJcP8ZAAI6Y0l78CW9lP4Bmkg8Mhk7dP8tL12Lsc2sWjyW07l59oNJWg9AOBtUGdpueLVBW0biu5HySgQlgA7Xg15zIOLuBx2eoi-oC7vjawmAGobqaRbE6zWZPtTKu-hgrZc2LfcL2iqLxuXcjDMbaZxnD6OxVp6LwK7kV0f3pcoRElQO4z0AdWZedFJn2BcTlVKqamij8necBZCvgoD2TMzZ0nsT_MfuxPkb4AwH5A-46gbADyrG8N6ZxvCZXWbcYT9n7OcmtqCl47X8kmS2kOEzvIWyK9sShjMEYLJtFhifZvRaFpuNCKkKlizfXOUSy-ablSEmHyg9me7Fk5dr9mSjXGyvLzkn7iItUqndjkHbEq1jslXOgb_Kn0SYn-VBwzx_3_RC_Mbu6Jp-0000]--></g></svg>