<svg xmlns="http://www.w3.org/2000/svg" xmlns:xlink="http://www.w3.org/1999/xlink" contentStyleType="text/css" data-diagram-type="DESCRIPTION" height="836px" preserveAspectRatio="none" style="width:1020px;height:836px;background:#FFFFFF;" version="1.1" viewBox="0 0 1020 836" width="1020px" zoomAndPan="magnify"><defs/><g><!--cluster Message Broker System--><g id="cluster_Message Broker System"><path d="M8.5,6 L199.5254,6 A3.75,3.75 0 0 1 202.0254,8.5 L209.0254,28.2969 L967.5,28.2969 A2.5,2.5 0 0 1 970,30.7969 L970,827.28 A2.5,2.5 0 0 1 967.5,829.78 L8.5,829.78 A2.5,2.5 0 0 1 6,827.28 L6,8.5 A2.5,2.5 0 0 1 8.5,6 " fill="#FFFFFF" fill-opacity="0.00000" style="stroke:#000000;stroke-width:1.5;"/><line style="stroke:#000000;stroke-width:1.5;" x1="6" x2="209.0254" y1="28.2969" y2="28.2969"/><text fill="#000000" font-family="sans-serif" font-size="14" font-weight="bold" lengthAdjust="spacing" textLength="190.0254" x="10" y="20.9951">Message Broker System</text></g><!--cluster Producer--><g id="cluster_Producer"><rect fill="#FFFFFF" fill-opacity="0.00000" height="235.59" rx="2.5" ry="2.5" style="stroke:#181818;stroke-width:1;" width="490" x="38" y="57"/><text fill="#000000" font-family="sans-serif" font-size="14" font-weight="bold" lengthAdjust="spacing" textLength="71.4697" x="247.2651" y="71.9951">Producer</text></g><!--cluster Consumer--><g id="cluster_Consumer"><rect fill="#FFFFFF" fill-opacity="0.00000" height="235.59" rx="2.5" ry="2.5" style="stroke:#181818;stroke-width:1;" width="386" x="399" y="470.89"/><text fill="#000000" font-family="sans-serif" font-size="14" font-weight="bold" lengthAdjust="spacing" textLength="79.1465" x="552.4268" y="485.8851">Consumer</text></g><!--entity Exchange--><g id="elem_Exchange"><rect fill="#F1F1F1" height="36.2969" rx="2.5" ry="2.5" style="stroke:#181818;stroke-width:0.5;" width="88.6533" x="158.67" y="646.19"/><text fill="#000000" font-family="sans-serif" font-size="14" lengthAdjust="spacing" textLength="68.6533" x="168.67" y="669.1851">Exchange</text></g><!--entity Queue--><g id="elem_Queue"><rect fill="#F1F1F1" height="36.2969" rx="2.5" ry="2.5" style="stroke:#181818;stroke-width:0.5;" width="65.9922" x="284" y="777.48"/><text fill="#000000" font-family="sans-serif" font-size="14" lengthAdjust="spacing" textLength="45.9922" x="294" y="800.4751">Queue</text></g><!--entity ConnectionFactory--><g id="elem_ConnectionFactory"><rect fill="#F1F1F1" height="36.2969" rx="2.5" ry="2.5" style="stroke:#181818;stroke-width:0.5;" width="151.6396" x="615.18" y="232.3"/><text fill="#000000" font-family="sans-serif" font-size="14" lengthAdjust="spacing" textLength="131.6396" x="625.18" y="255.2951">ConnectionFactory</text></g><!--entity Connection--><g id="elem_Connection"><rect fill="#F1F1F1" height="36.2969" rx="2.5" ry="2.5" style="stroke:#181818;stroke-width:0.5;" width="99.2148" x="521.39" y="363.59"/><text fill="#000000" font-family="sans-serif" font-size="14" lengthAdjust="spacing" textLength="79.2148" x="531.39" y="386.5851">Connection</text></g><!--entity Channel--><g id="elem_Channel"><rect fill="#F1F1F1" height="36.2969" rx="2.5" ry="2.5" style="stroke:#181818;stroke-width:0.5;" width="77.4766" x="297.26" y="532.89"/><text fill="#000000" font-family="sans-serif" font-size="14" lengthAdjust="spacing" textLength="57.4766" x="307.26" y="555.8851">Channel</text></g><!--entity Message--><g id="elem_Message"><rect fill="#F1F1F1" height="36.2969" rx="2.5" ry="2.5" style="stroke:#181818;stroke-width:0.5;" width="81.3594" x="143.32" y="532.89"/><text fill="#000000" font-family="sans-serif" font-size="14" lengthAdjust="spacing" textLength="61.3594" x="153.32" y="555.8851">Message</text></g><!--entity BasicPublisher--><g id="elem_BasicPublisher"><rect fill="#F1F1F1" height="36.2969" rx="2.5" ry="2.5" style="stroke:#181818;stroke-width:0.5;" width="121.582" x="363.21" y="119"/><text fill="#000000" font-family="sans-serif" font-size="14" lengthAdjust="spacing" textLength="101.582" x="373.21" y="141.9951">BasicPublisher</text></g><!--entity Publisher--><g id="elem_Publisher"><rect fill="#F1F1F1" height="36.2969" rx="2.5" ry="2.5" style="stroke:#181818;stroke-width:0.5;" width="84.5176" x="61.74" y="119"/><text fill="#000000" font-family="sans-serif" font-size="14" lengthAdjust="spacing" textLength="64.5176" x="71.74" y="141.9951">Publisher</text></g><!--entity PublisherConfirms--><g id="elem_PublisherConfirms"><rect fill="#F1F1F1" height="36.2969" rx="2.5" ry="2.5" style="stroke:#181818;stroke-width:0.5;" width="147.2373" x="181.38" y="119"/><text fill="#000000" font-family="sans-serif" font-size="14" lengthAdjust="spacing" textLength="127.2373" x="191.38" y="141.9951">PublisherConfirms</text></g><!--entity RPCClient--><g id="elem_RPCClient"><rect fill="#F1F1F1" height="36.2969" rx="2.5" ry="2.5" style="stroke:#181818;stroke-width:0.5;" width="88.4756" x="61.76" y="232.3"/><text fill="#000000" font-family="sans-serif" font-size="14" lengthAdjust="spacing" textLength="68.4756" x="71.76" y="255.2951">RPCClient</text></g><!--entity BasicConsumer--><g id="elem_BasicConsumer"><rect fill="#F1F1F1" height="36.2969" rx="2.5" ry="2.5" style="stroke:#181818;stroke-width:0.5;" width="128.4521" x="422.77" y="532.89"/><text fill="#000000" font-family="sans-serif" font-size="14" lengthAdjust="spacing" textLength="108.4521" x="432.77" y="555.8851">BasicConsumer</text></g><!--entity SelectiveConsumer--><g id="elem_SelectiveConsumer"><rect fill="#F1F1F1" height="36.2969" rx="2.5" ry="2.5" style="stroke:#181818;stroke-width:0.5;" width="155.3652" x="586.32" y="532.89"/><text fill="#000000" font-family="sans-serif" font-size="14" lengthAdjust="spacing" textLength="135.3652" x="596.32" y="555.8851">SelectiveConsumer</text></g><!--entity CompetingConsumer--><g id="elem_CompetingConsumer"><rect fill="#F1F1F1" height="36.2969" rx="2.5" ry="2.5" style="stroke:#181818;stroke-width:0.5;" width="168.0049" x="423" y="646.19"/><text fill="#000000" font-family="sans-serif" font-size="14" lengthAdjust="spacing" textLength="148.0049" x="433" y="669.1851">CompetingConsumer</text></g><!--entity RPCServer--><g id="elem_RPCServer"><rect fill="#F1F1F1" height="36.2969" rx="2.5" ry="2.5" style="stroke:#181818;stroke-width:0.5;" width="93.8555" x="626.07" y="646.19"/><text fill="#000000" font-family="sans-serif" font-size="14" lengthAdjust="spacing" textLength="73.8555" x="636.07" y="669.1851">RPCServer</text></g><!--link Producer to Exchange--><g id="link_Producer_Exchange"><path d="M528.0329,154.7246 C528.0939,154.865 528.155,155.0061 528.2162,155.1477 C528.3386,155.431 528.4613,155.7166 528.5842,156.0044 C528.83,156.5801 529.0767,157.1647 529.3236,157.7574 C529.8174,158.9429 530.312,160.161 530.8021,161.4054 C531.7823,163.8941 532.7447,166.4883 533.6469,169.1378 C535.4513,174.4369 537.015,179.9575 538,185.3 C547.24,235.4 578.62,274 525,333.59 C480.98,382.51 438.61,333.67 380,363.59 C326.4,390.95 308.92,402.12 280,454.89 C245.03,518.69 286.13,551.93 252,616.19 C245.96,627.55 240.7161,633.8627 231.4761,641.8627 " fill="#FFFFFF" fill-opacity="0.00000" id="Producer-to-Exchange" style="stroke:#181818;stroke-width:1;"/><polygon fill="#181818" points="226.94,645.79,236.3623,642.923,230.7201,642.5172,231.1259,636.8749,226.94,645.79" style="stroke:#181818;stroke-width:1;"/><text fill="#000000" font-family="sans-serif" font-size="13" lengthAdjust="spacing" textLength="122.4463" x="381" y="386.3069">Publishes Message</text></g><!--link Exchange to Queue--><g id="link_Exchange_Queue"><path d="M196.85,682.68 C191.7,700.52 187.06,728.32 200,747.48 C218.57,774.98 250.2181,785.4154 277.7981,790.1954 " fill="#FFFFFF" fill-opacity="0.00000" id="Exchange-to-Queue" style="stroke:#181818;stroke-width:1;"/><polygon fill="#181818" points="283.71,791.22,275.5253,785.7418,278.7834,790.3662,274.1591,793.6243,283.71,791.22" style="stroke:#181818;stroke-width:1;"/><text fill="#000000" font-family="sans-serif" font-size="13" lengthAdjust="spacing" textLength="106.2026" x="201" y="743.5469">Routes Message</text></g><!--link Queue to Consumer--><g id="link_Queue_Consumer"><path d="M350.49,794.17 C443.56,792.15 702.16,781.26 758,722.48 C761.23,719.0813 763.9528,713.9383 766.2444,707.5318 C766.316,707.3316 764.409,712.7947 764.4798,712.592 " fill="#FFFFFF" fill-opacity="0.00000" id="Queue-to-Consumer" style="stroke:#181818;stroke-width:1;"/><polygon fill="#181818" points="766.4579,706.9275,759.7143,714.1055,764.8095,711.6479,767.2671,716.7431,766.4579,706.9275" style="stroke:#181818;stroke-width:1;"/><text fill="#000000" font-family="sans-serif" font-size="13" lengthAdjust="spacing" textLength="114.1499" x="777" y="668.8969">Delivers Message</text></g><!--link Producer to ConnectionFactory--><g id="link_Producer_ConnectionFactory"><path d="M528.2617,143.5281 C528.3746,143.6016 528.4884,143.6756 528.6033,143.7504 C528.833,143.8999 529.0668,144.0521 529.3046,144.2068 C529.7803,144.5164 530.272,144.8364 530.7792,145.1665 C532.8083,146.487 535.086,147.9694 537.5797,149.5923 C547.5544,156.0841 560.9838,164.8244 575.7675,174.4463 C605.335,193.69 635.2913,213.1871 658.8913,228.5471 " fill="#FFFFFF" fill-opacity="0.00000" id="Producer-to-ConnectionFactory" style="stroke:#181818;stroke-width:1;"/><polygon fill="#181818" points="663.92,231.82,658.5589,223.5581,659.7294,229.0926,654.195,230.2631,663.92,231.82" style="stroke:#181818;stroke-width:1;"/><text fill="#000000" font-family="sans-serif" font-size="13" lengthAdjust="spacing" textLength="127.9434" x="616" y="198.3669">Creates Connection</text></g><!--link Consumer to ConnectionFactory--><g id="link_Consumer_ConnectionFactory"><path d="M763.9327,470.784 C763.8304,470.4626 763.7273,470.1416 763.6234,469.8211 C761.9613,464.692 760.095,459.6725 758,454.89 C745.87,427.2 729.89,427.68 718,399.89 C698.93,355.34 693.6639,303.6401 692.0239,275.0701 " fill="#FFFFFF" fill-opacity="0.00000" id="Consumer-to-ConnectionFactory" style="stroke:#181818;stroke-width:1;"/><polygon fill="#181818" points="691.68,269.08,688.2024,278.2944,691.9665,274.0718,696.1892,277.836,691.68,269.08" style="stroke:#181818;stroke-width:1;"/><text fill="#000000" font-family="sans-serif" font-size="13" lengthAdjust="spacing" textLength="108.748" x="719" y="386.3069">Uses Connection</text></g><!--link ConnectionFactory to Connection--><g id="link_ConnectionFactory_Connection"><path d="M670.95,268.99 C656.78,281.71 637.6,299.6 622,316.59 C608.14,331.68 597.3481,345.2961 587.3981,358.5161 " fill="#FFFFFF" fill-opacity="0.00000" id="ConnectionFactory-to-Connection" style="stroke:#181818;stroke-width:1;"/><polygon fill="#181818" points="583.79,363.31,592.3981,358.5246,586.7968,359.3151,586.0062,353.7137,583.79,363.31" style="stroke:#181818;stroke-width:1;"/><text fill="#000000" font-family="sans-serif" font-size="13" lengthAdjust="spacing" textLength="58.4111" x="623" y="329.6569">Manages</text></g><!--link Connection to Channel--><g id="link_Connection_Channel"><path d="M541.94,400.33 C517.01,414.72 479.72,434.64 445,446.89 C428.72,452.63 421.54,445.6 407,454.89 C376.95,474.09 357.7969,505.4353 346.7869,527.2153 " fill="#FFFFFF" fill-opacity="0.00000" id="Connection-to-Channel" style="stroke:#181818;stroke-width:1;"/><polygon fill="#181818" points="344.08,532.57,351.7101,526.3425,346.3357,528.1077,344.5705,522.7334,344.08,532.57" style="stroke:#181818;stroke-width:1;"/><text fill="#000000" font-family="sans-serif" font-size="13" lengthAdjust="spacing" textLength="41.4946" x="486" y="442.9569">Opens</text></g><!--link Channel to Exchange--><g id="link_Channel_Exchange"><path d="M314.93,569.67 C290.02,590.51 253.4417,621.1298 228.5817,641.9298 " fill="#FFFFFF" fill-opacity="0.00000" id="Channel-to-Exchange" style="stroke:#181818;stroke-width:1;"/><polygon fill="#181818" points="223.98,645.78,233.4494,643.0725,227.8148,642.5715,228.3158,636.9369,223.98,645.78" style="stroke:#181818;stroke-width:1;"/><text fill="#000000" font-family="sans-serif" font-size="13" lengthAdjust="spacing" textLength="35.7944" x="279" y="612.2569">Binds</text></g><!--link Channel to Queue--><g id="link_Channel_Queue"><path d="M334.63,569.48 C331.14,614.14 322.3582,726.1983 318.8482,771.0383 " fill="#FFFFFF" fill-opacity="0.00000" id="Channel-to-Queue" style="stroke:#181818;stroke-width:1;"/><polygon fill="#181818" points="318.38,777.02,323.0702,768.3596,318.7702,772.0352,315.0946,767.7353,318.38,777.02" style="stroke:#181818;stroke-width:1;"/><text fill="#000000" font-family="sans-serif" font-size="13" lengthAdjust="spacing" textLength="56.8496" x="330" y="668.8969">Declares</text></g><!--link Message to Exchange--><g id="link_Message_Exchange"><path d="M172.3,569.6 C165.16,582.57 158.39,600.6 164,616.19 C168.03,627.38 171.893,633.4259 179.583,641.6159 " fill="#FFFFFF" fill-opacity="0.00000" id="Message-to-Exchange" style="stroke:#181818;stroke-width:1;"/><polygon fill="#181818" points="183.69,645.99,180.4455,636.6909,180.2675,642.345,174.6134,642.1669,183.69,645.99" style="stroke:#181818;stroke-width:1;"/><text fill="#000000" font-family="sans-serif" font-size="13" lengthAdjust="spacing" textLength="82.8433" x="165" y="612.2569">Published To</text></g><!--link Message to Queue--><g id="link_Message_Queue"><path d="M150.89,569.64 C124.59,585.68 89.72,612.05 74,646.19 C59.82,676.99 53.72,695.31 74,722.48 C99.27,756.34 217.3959,779.0484 277.8459,788.7584 " fill="#FFFFFF" fill-opacity="0.00000" id="Message-to-Queue" style="stroke:#181818;stroke-width:1;"/><polygon fill="#181818" points="283.77,789.71,275.5183,784.3333,278.8333,788.917,274.2495,792.232,283.77,789.71" style="stroke:#181818;stroke-width:1;"/><text fill="#000000" font-family="sans-serif" font-size="13" lengthAdjust="spacing" textLength="65.4316" x="75" y="668.8969">Enqueued</text></g><!--link Producer to Message--><g id="link_Producer_Message"><path d="M528.0157,180.5649 C528.0742,181.0508 528.132,181.5395 528.189,182.0308 C528.3028,183.0135 528.4134,184.0069 528.5201,185.0104 C528.7337,187.0174 528.9321,189.0647 529.112,191.1473 C529.4719,195.3125 529.7578,199.6189 529.9425,204.0262 C531.42,239.285 526.42,281.005 501,308.59 C488.42,322.25 477.96,311.87 460,316.59 C396.12,333.4 372.39,324.69 319,363.59 C255.21,410.07 212.088,490.3968 194.518,527.1468 " fill="#FFFFFF" fill-opacity="0.00000" id="Producer-to-Message" style="stroke:#181818;stroke-width:1;stroke-dasharray:7.0,7.0;"/><polygon fill="#181818" points="191.93,532.56,199.4208,526.1656,194.0867,528.049,192.2032,522.7149,191.93,532.56" style="stroke:#181818;stroke-width:1;"/><text fill="#000000" font-family="sans-serif" font-size="13" lengthAdjust="spacing" textLength="59.5474" x="461" y="329.6569">Produces</text></g><!--link Consumer to Message--><g id="link_Consumer_Message"><path d="M766.3786,470.6187 C766.04,470.1451 765.6933,469.6775 765.3381,469.2162 C764.6279,468.2935 763.884,467.3959 763.1051,466.5261 C761.5473,464.7864 759.8494,463.1575 758,461.66 C716.72,428.24 329.42,442.22 280,461.66 C243.76,475.92 216.7088,506.2166 200.3488,527.9466 " fill="#FFFFFF" fill-opacity="0.00000" id="Consumer-to-Message" style="stroke:#181818;stroke-width:1;stroke-dasharray:7.0,7.0;"/><polygon fill="#181818" points="196.74,532.74,205.3488,527.9558,199.7473,528.7455,198.9576,523.1441,196.74,532.74" style="stroke:#181818;stroke-width:1;"/><text fill="#000000" font-family="sans-serif" font-size="13" lengthAdjust="spacing" textLength="67.7168" x="369.5" y="442.9569">Consumes</text></g><!--link BasicPublisher to Queue--><g id="link_BasicPublisher_Queue"><path d="M485.24,154.31 C486.5,154.64 487.76,154.97 489,155.3 C620.07,189.69 683.74,141.15 784,232.3 C945.23,378.87 919.19,544.85 793,722.48 C741.75,794.63 455.6194,796.8751 356.1594,795.4651 " fill="#FFFFFF" fill-opacity="0.00000" id="BasicPublisher-to-Queue" style="stroke:#181818;stroke-width:1;"/><polygon fill="#181818" points="350.16,795.38,359.1024,799.5072,355.1595,795.4509,359.2158,791.508,350.16,795.38" style="stroke:#181818;stroke-width:1;"/><text fill="#000000" font-family="sans-serif" font-size="13" lengthAdjust="spacing" textLength="115.9844" x="897" y="442.9569">Publishes Directly</text></g><!--SRC=[VLFBRi8m4BpdArRSwGTmu412RwX0sbF4mNMsOE7OgUsWHXN_NZjndhZu45cpCxkpcxM-Cb4IHGgWiYYbG65IKtC4XTGGSUOOHIMXLt96MEnGQtVPA7b51Mcj3HOB-8qYi2VRAvbN5DK9biirPDiVUh4Py0Ghs5UVdEaBQl0vMiL0QHI72gk6VfILcNDzi276KkYgS9LMa21dDrHJTlFfEuBEcRKA_cGReXdjVAdJ47YAsSfVJ1Lw53lkuvWpMwR5xY43dU470tqd0vuYjxEtFGLYiSs8Xebp86PzfAXk7JRoqRVV3K-u0bAy4cgagjqKOuN4ZNm8DihUz__A3nsKJObplHFkYB2_Iyy4dcdNGY1tjBSIXIUruEDsRPZ80vH-dHAad2XVgjqclonFLZM7TndYzbctujjTyy2SNzOZrQh3zNIaCvB7HoQd6pghFhoeXBctokle_WS0]--></g></svg>